<?xml version="1.0" encoding="utf-8"?>
<!-- Generator: Adobe Illustrator 16.0.0, SVG Export Plug-In . SVG Version: 6.00 Build 0)  -->
<!DOCTYPE svg PUBLIC "-//W3C//DTD SVG 1.1//EN" "http://www.w3.org/Graphics/SVG/1.1/DTD/svg11.dtd">
<svg version="1.1" id="Layer_1" xmlns="http://www.w3.org/2000/svg" xmlns:xlink="http://www.w3.org/1999/xlink" x="0px" y="0px"
	 width="1000px" height="520.557px" viewBox="0 0 1000 520.557" enable-background="new 0 0 1000 520.557" xml:space="preserve">
<g>
	<path fill="#8ED8F8" d="M962.426,16.239c-7.733,0.184-20.813,1.32-26.644,6.846c-4.207-2.241-8.412-3.07-12.525-3.07
		c-2.119,0-4.206,0.246-6.264,0.584l-3.714-0.676c-4.942,0.215-7.674,2.24-11.388,4.39l-1.567,0.368l-6.968,0.277
		c-2.364-0.769-4.881-1.106-7.521-1.106c-0.707,0-1.505,0-2.241,0.062l-8.319-0.092l-7.674,2.486
		c-2.118-1.442-4.205-1.965-6.293-1.965c-3.254,0-6.478,1.32-9.823,2.732l-5.465,0.093l-7.06,2.854
		c-4.298-0.215-9.147-1.504-13.876-1.504c-0.644,0-1.29,0-1.903,0.061c-7.12,0.583-13.631,3.192-19.432,3.192l-1.136-0.062
		l-5.525-1.012l0.613,0.307l-2.333,0.03c-6.753,1.167-10.867,6.263-17.774,6.263c-0.43,0-0.89-0.03-1.382-0.062
		c-4.971-0.491-7.304-4.267-12.062-4.267c-0.584,0-1.229,0.062-1.936,0.184c-3.684,0.153-2.824,4.114-6.445,4.359
		c-2.088-1.565-4.544-2.18-7.061-2.18c-5.158,0-10.714,2.579-14.645,4.851c-2.271-2.149-4.634-2.854-7.091-2.854
		c-5.401,0-10.96,3.806-15.532,4.082c-0.123,0-0.246,0-0.369,0c-1.78,0-3.684-0.706-5.586-1.381
		c-1.903-0.736-3.746-1.413-5.558-1.413c-0.029,0-0.061,0-0.092,0c-4.789,0.093-9.178,3.163-14.09,3.5c-0.154,0-0.307,0-0.521,0
		c-2.825,0-5.802-1.474-8.688-1.474c-6.722,0.062-12.492,3.961-19.246,3.961h-0.062c-0.062,0-0.124,0-0.154,0
		c-6.568,0-10.744-2.487-16.792-3.039c-3.991,1.534-6.754,4.082-10.896,5.494c-2.427-2.026-4.697-2.824-6.815-2.824
		c-6.325,0-11.481,6.784-16.179,7.858c-0.828,0.154-1.687,0.246-2.517,0.246c-2.517,0-5.219-0.614-8.042-1.259
		c-2.763-0.584-5.68-1.228-8.504-1.228c-1.289,0-2.579,0.122-3.837,0.46c-3.255,0.829-4.543,3.315-8.719,4.543
		c-2.21-2.302-5.096-3.346-8.072-3.346c-3.593,0-7.276,1.534-9.978,4.175c-2.455-1.78-4.912-2.426-7.459-2.426
		c-7.031,0-14.582,4.882-22.624,5.066c-0.184,0-0.309,0-0.492,0c-3.439,0-7.091-0.86-10.683-1.75c-3.562-0.86-7.06-1.72-10.131-1.72
		c-0.859,0-1.688,0.062-2.454,0.215c-4.33,0.891-6.755,5.311-10.899,5.495c-0.152,0-0.277,0-0.43,0
		c-1.934,0-3.929-0.614-5.924-1.259c-2.026-0.613-4.053-1.259-5.864-1.259c-2.271,0-4.328,0.983-5.801,4.145
		c-2.825-2.824-5.557-3.806-8.166-3.806c-6.262,0-11.973,5.679-17.375,6.016c-0.092,0-0.185,0-0.307,0
		c-1.474,0-3.131-0.705-4.728-1.442c-1.627-0.736-3.254-1.474-4.851-1.474c-0.062,0-0.153,0-0.245,0
		c-5.587,0.308-11.051,6.108-17.559,6.108h-0.062c-3.254-0.03-6.447-2.916-9.762-2.916c-0.123,0-0.215,0.031-0.338,0.031
		c-3.531,0.184-7.275,2.946-11.082,3.224c-0.185,0-0.399,0-0.583,0c-1.535,0-3.101-0.339-4.697-0.707
		c-1.596-0.337-3.162-0.705-4.604-0.705c-0.276,0-0.553,0.03-0.86,0.061c-4.266,0.491-7.612,3.961-11.726,4.053
		c-0.123,0-0.184,0-0.277,0c-2.056,0-4.113-0.676-6.108-1.382c-1.995-0.675-3.93-1.351-5.679-1.351
		c-0.337,0-0.706,0.031-1.074,0.093c-3.439,0.736-5.71,6.139-9.148,6.139c-0.062,0-0.123,0-0.153,0
		c-2.18-1.565-5.71-2.241-9.578-2.241c-6.109,0-12.923,1.72-15.993,4.452c-3.592-3.407-7.644-5.342-11.634-5.342
		c-3.868,0-7.675,1.842-11.005,5.832c-2.072-2.333-4.159-3.192-6.201-3.192c-5.142,0-10.207,5.311-14.796,5.771
		c-0.199,0-0.384,0.03-0.568,0.03c-3.084,0-6.263-2.486-9.531-2.916c-1.351-0.215-2.64-0.276-3.853-0.276
		c-7.966,0-14.306,3.254-22.103,6.324c-2.578-2.026-5.157-2.701-7.951-2.701c-4.728,0-9.946,1.994-16.316,2.548
		c-0.476,0.03-0.952,0.062-1.458,0.062c-1.443,0-2.916-0.185-4.329-0.338c-1.412-0.154-2.793-0.338-4.021-0.338
		c-0.567,0-1.074,0.03-1.581,0.122c-4.528,0.677-7.858,4.421-11.696,4.789c-0.245,0.031-0.491,0.031-0.782,0.031
		c-1.949,0-3.868-0.676-5.679-1.382c-1.888-0.675-3.684-1.381-5.48-1.381c-0.123,0-0.276,0.03-0.398,0.03
		c-4.16,0.276-7.613,4.021-12.448,4.881c-0.568,0.092-1.136,0.123-1.734,0.123c-2.011,0-4.144-0.461-6.293-0.951
		c-2.103-0.461-4.205-0.921-6.124-0.921c-0.415,0-0.784,0.03-1.167,0.062c-3.362,0.368-6.692,3.529-10.238,3.929
		c-0.354,0.03-0.69,0.03-1.044,0.03c-1.857,0-3.837-0.491-5.817-0.951c-2.01-0.46-4.052-0.952-6.032-0.952
		c-0.292,0-0.598,0-0.905,0.031c-4.636,0.399-9.025,3.192-13.338,3.438c-0.246,0-0.507,0.03-0.783,0.03
		c-2.042,0-4.083-0.46-6.094-0.951c-2.041-0.461-4.067-0.922-6.047-0.922c-0.276,0-0.598,0-0.875,0.031
		c-4.712,0.368-8.764,3.192-14.014,4.267c-2.271,0.43-4.251,0.614-6.079,0.614c-5.817,0-9.808-1.75-14.489-1.873
		c-0.307,0-0.598,0-0.906,0c-8.61,0-16.561,3.378-24.235,6.754c-3.714-2.486-9.654-3.745-15.901-3.745
		c-4.16,0-8.427,0.583-12.295,1.657c-5.602,9.486-4.589,25.357,4.236,31.42c-6.277,6.63-4.083,17.682,2.042,23.33
		c-5.434,8.411-4.329,19.708,2.395,27.076c-7.199,6.384,0.03,16.699,4.144,21.55c-6.692,12.033-0.399,25.847,1.611,35.485
		c1.918,9.087-2.072,16.577-0.783,25.786c0.599,4.299,3.699,8.104,4.114,12.524c0.383,3.686-1.443,7.797-1.259,11.481
		c0.323,5.832,4.176,10.806,4.375,15.533c0.153,3.314-2.333,6.69-2.149,10.009c0.323,4.971,4.467,10.313,4.405,15.531
		c-0.092,4.912-3.177,8.35-2.701,12.341c0.476,4.176,4.589,7.613,4.866,12.464c0.229,3.928-2.978,8.164-2.641,13.076
		c0.599,9.086,3.377,17.499,2.302,26.339c3.054,2.579,3.93,5.464,3.868,8.596c0,0-2.241,7.429-1.826,11.236
		c-0.445,2.577-0.66,3.131-0.354,6.015c0.414,3.501,2.809,3.501,2.364,10.131c-0.661,3.808,3.683,6.509,2.67,11.667
		c-6.814,7.858-0.567,17.681,3.746,25.417c-6.692,6.631-3.561,17.558,2.103,24.066c-5.464,8.657-2.011,20.139,1.043,29.408
		c2.195,0.982,4.528,1.474,6.876,1.474h0.292c7.798-0.062,15.932-4.42,21.059-7.675c4.175,2.211,8.396,3.009,12.509,3.009
		c8.273,0,16.223-3.193,22.947-4.666c2.256-0.431,4.467-0.614,6.6-0.614c3.146,0,6.155,0.368,8.995,0.798
		c2.824,0.369,5.464,0.799,8.012,0.799c1.013,0,2.011-0.061,2.993-0.244c4.145-0.615,7.567-3.686,11.741-4.053
		c0.354,0,0.737-0.063,1.075-0.063c1.704,0,3.454,0.307,5.249,0.614c1.796,0.369,3.592,0.676,5.342,0.676
		c0.444,0,0.89-0.063,1.289-0.063c4.942-0.49,9.501-4.113,14.029-4.297c0.062,0,0.123,0,0.185,0c1.657,0,3.238,0.553,4.804,1.104
		c1.55,0.554,3.085,1.043,4.65,1.043c0.139,0,0.261,0,0.384,0c4.313-0.244,9.624-4.236,14.781-4.297
		c4.298,0,8.196,2.702,12.156,2.702c0.323,0,0.629-0.063,0.952-0.063c4.359-0.49,8.074-4.666,12.448-4.912c0.123,0,0.246,0,0.368,0
		c1.95,0,3.929,0.676,5.879,1.353c1.949,0.736,3.868,1.35,5.755,1.35c0.123,0,0.215,0,0.338,0c3.468-0.123,7.429-2.147,11.159-2.456
		c0.598-0.061,1.167-0.061,1.734-0.061c1.765,0,3.484,0.184,5.126,0.369c1.597,0.184,3.177,0.306,4.682,0.306
		c1.228,0,2.425-0.122,3.623-0.431c2.854-0.734,5.587-4.174,8.671-4.541c0.215,0,0.476,0,0.722,0c3.269,0,7.735,2.333,11.634,2.7
		c1.382,0.122,2.702,0.185,3.898,0.185c8.074,0,12.494-2.885,19.831-6.017c3.039,1.903,6.814,3.069,10.529,3.069
		c3.899,0,7.736-1.289,10.591-4.175c2.854,2.886,5.863,4.175,8.872,4.175c4.727,0,9.362-3.13,12.77-7.612
		c2.456,1.534,5.924,2.21,9.67,2.21c6.416,0,13.538-1.904,17.406-4.543c2.425,2.946,4.819,3.928,7.214,3.928
		c4.636,0,9.363-3.682,14.704-4.357c0.307,0,0.614-0.063,0.952-0.063c1.75,0,3.469,0.492,5.28,1.043
		c1.75,0.492,3.53,1.044,5.31,1.044c0.246,0,0.491-0.061,0.737-0.061c4.052-0.307,7.736-3.132,11.849-3.315c0.062,0,0.185,0,0.246,0
		c1.474,0,3.008,0.369,4.513,0.738c1.504,0.367,2.978,0.734,4.267,0.734c0.308,0,0.645-0.061,0.921-0.061
		c3.591-0.49,6.63-4.236,10.191-4.666c0.43-0.061,0.86-0.123,1.351-0.123c2.455,0,5.034,0.859,7.551,1.657
		c2.517,0.738,5.033,1.535,7.366,1.535c0.492,0,0.953,0,1.414-0.062c3.193-0.552,6.2-4.42,9.453-4.666c0.124,0,0.247,0,0.37,0
		c3.806,0,7.673,4.298,11.357,4.298c0.063,0,0.122,0,0.184,0c4.359,0,6.509-3.313,10.776-4.729
		c3.406-1.164,7.735-1.778,11.634-1.778c0.123,0,0.215,0,0.307,0c8.073,0,14.215,2.639,21.151,2.639
		c1.318,0,2.671-0.122,4.052-0.368c2.732-3.255,7.245-4.481,11.819-4.481c4.111,0,8.35,0.982,11.481,2.456
		c2.271-2.333,4.42-3.008,6.569-3.008c1.595,0,3.192,0.367,4.941,0.735c1.688,0.369,3.469,0.799,5.371,0.799
		c0.614,0,1.261-0.061,1.903-0.123c4.176-0.613,6.323-4.359,10.93-4.787c0.185,0,0.368,0,0.522,0c3.099,0,6.507,2.147,9.545,2.208
		c0.063,0,0.063,0,0.125,0c5.217,0,9.453-3.068,14.672-3.622c0.461-0.062,0.92-0.062,1.382-0.062c1.35,0,2.731,0.186,4.144,0.369
		c1.413,0.122,2.824,0.308,4.268,0.308c0.797,0,1.628-0.062,2.396-0.186c2.854-0.43,5.371-1.964,8.103-2.209
		c0.399,0,0.769,0,1.104,0c1.812,0,3.593,0.306,5.373,0.614c1.78,0.305,3.529,0.613,5.28,0.613c0.43,0,0.828-0.063,1.229-0.063
		c7.06-0.613,13.076-5.893,19.891-6.261c0.184-0.063,0.309-0.063,0.492-0.063c3.314,0,6.907,2.087,10.313,2.087h0.063
		c4.789,0,9.639-2.454,14.826-2.823c6.446-0.307,12.31-0.736,19.555-1.658c1.044-0.185,2.026-0.185,2.854-0.185
		c2.118,0,3.686,0.309,5.158,0.677c1.442,0.367,2.793,0.736,4.389,0.736c0.707,0,1.476-0.061,2.272-0.246
		c3.377-0.613,6.14-3.438,9.516-3.867c0.492-0.063,1.015-0.123,1.536-0.123c1.749,0,3.468,0.369,5.217,0.675
		c1.751,0.308,3.501,0.613,5.221,0.613c0.613,0,1.228-0.06,1.872-0.121c2.886-0.431,5.709-3.5,8.749-3.807c0.122,0,0.276,0,0.431,0
		c1.626,0,2.577,0.797,3.56,1.595c0.921,0.738,1.903,1.535,3.5,1.535c0.184,0,0.369,0,0.613,0c3.254-0.307,12.401-3.806,15.532-4.42
		c0.707-0.123,1.289-0.184,1.873-0.184c1.259,0,2.304,0.246,3.469,0.491c1.168,0.244,2.456,0.49,4.236,0.49
		c0.613,0,1.32,0,2.088-0.061c0,0,1.995,0.613,5.097,0.613c2.055,0,4.604-0.307,7.335-1.166c2.487-0.86,4.052-1.106,5.313-1.106
		c2.241,0,3.438,0.799,6.876,0.984l1.779-0.309c3.746-0.98,8.135-3.868,12.311-4.543c0.582-0.061,1.137-0.123,1.75-0.123
		c1.995,0,4.113,0.492,6.231,0.923c2.118,0.49,4.206,0.98,6.171,0.98c0.369,0,0.799-0.061,1.166-0.061
		c3.622-0.43,7.153-3.745,10.989-4.052c0.184,0,0.308,0,0.43,0c1.689,0,3.468,0.49,5.279,1.043c1.782,0.49,3.593,1.045,5.404,1.045
		c0.152,0,0.307,0,0.43,0c4.912-0.246,9.823-3.317,14.858-3.622c0.246,0,0.49,0,0.797,0c2.212,0,4.299,0.43,6.355,0.919
		c1.995,0.43,4.02,0.922,6.048,0.922c0.43,0,0.858-0.063,1.288-0.063c4.482-0.43,8.228-3.193,13.261-4.174
		c2.212-0.43,4.176-0.676,5.987-0.676c5.74,0,9.914,1.781,14.58,1.902c0.309,0,0.613,0,0.922,0c8.473,0,16.638-3.376,24.252-6.752
		c3.715,2.456,9.67,3.743,15.962,3.743c4.113,0,8.38-0.551,12.247-1.656c0.83-2.518,1.321-6.077,1.382-9.946v-2.026
		c-0.121-7.798-1.903-16.27-5.647-19.463c6.263-6.63,4.113-17.681-2.057-23.329c5.219-8.902,5.127-20.69-2.363-27.016
		c2.947-5.525,0.921-11.97-2.211-16.515c6.969-11.356,0.492-25.17-1.474-34.688c-1.933-9.025,1.966-16.761,0.736-25.849
		c-0.613-4.174-3.714-8.226-4.112-12.462c-0.368-3.685,1.473-7.675,1.258-11.481c-0.336-5.525-4.205-10.621-4.389-15.532
		c-0.125-3.623,2.394-7.184,2.087-10.745c-0.43-5.096-4.42-9.639-4.299-14.796c0.063-4.728,3.256-8.596,2.642-13.139
		c-0.615-3.929-4.605-7.49-4.82-11.665c-0.215-3.991,2.855-7.981,2.793-11.604c-0.092-3.623-2.271-7.613-2.578-11.911
		c-0.43-5.587,1.288-10.99,0.185-15.164c-0.8-2.825-4.176-5.526-4.543-8.657c-0.677-5.525,3.376-11.911,2.917-18.465
		c-0.217-3.069-0.83-5.434-1.628-7.46c1.442-6.262-3.776-12.831-3.653-18.909c0.094-3.469,2.978-6.416,2.915-10.13
		c-0.061-5.525-2.394-7.215-4.111-12.494c3.99-6.201,1.657-17.252-2.028-23.3c6.938-4.574,2.272-12.126,1.413-18.296
		C966.081,27.413,969.947,17.498,962.426,16.239"/>
	<polygon fill="#8ED8F8" points="831.9,453.267 830.121,453.575 831.779,453.451 	"/>
	<path fill="#FFFFFF" d="M812.591,437.06c3.775-0.983,8.137-3.867,12.311-4.543c4.789-0.8,10.684,2.21,15.287,1.719
		c3.652-0.43,7.183-3.747,11.051-4.052c3.623-0.246,7.613,2.21,11.542,2.087c4.882-0.246,9.823-3.316,14.798-3.623
		c5.279-0.307,9.762,2.271,14.551,1.782c4.42-0.492,8.228-3.193,13.261-4.178c9.209-1.841,14.396,1.045,20.567,1.229
		c8.841,0.246,17.253-3.254,25.141-6.755c6.171,4.114,18.512,4.852,28.213,2.028c2.7-7.859,1.72-26.34-4.27-31.436
		c6.294-6.568,4.086-17.62-2.055-23.269c5.219-8.902,5.156-20.69-2.334-27.014c2.949-5.525,0.921-11.974-2.209-16.516
		c6.937-11.421,0.492-25.173-1.536-34.688c-1.903-9.026,2.028-16.761,0.799-25.849c-0.615-4.175-3.745-8.227-4.113-12.463
		c-0.369-3.683,1.474-7.674,1.228-11.48c-0.307-5.525-4.174-10.683-4.391-15.533c-0.121-3.622,2.425-7.184,2.12-10.744
		c-0.492-5.096-4.453-9.64-4.361-14.797c0.093-4.728,3.316-8.595,2.642-13.076c-0.553-3.991-4.605-7.552-4.79-11.727
		c-0.245-3.93,2.825-7.92,2.763-11.604c-0.06-3.683-2.24-7.612-2.578-11.91c-0.369-5.587,1.351-10.929,0.215-15.165
		c-0.768-2.823-4.206-5.525-4.573-8.672c-0.614-5.495,3.407-11.941,2.946-18.45c-0.184-3.1-0.828-5.464-1.595-7.459
		c1.411-6.262-3.808-12.862-3.685-18.94c0.123-3.407,2.978-6.385,2.946-10.069c-0.061-5.586-2.394-7.275-4.113-12.524
		c3.93-6.231,1.626-17.282-2.056-23.33c6.966-4.544,2.301-12.095,1.411-18.295C946.771,11.174,950.64,1.29,943.149,0
		c-7.767,0.215-20.813,1.351-26.646,6.876c-6.384-3.376-12.77-3.499-18.816-2.517l-3.686-0.614
		c-4.941,0.185-7.704,2.211-11.389,4.359l-1.595,0.338l-6.938,0.307c-3.069-0.982-6.324-1.29-9.762-1.014l-8.35-0.153l-7.706,2.486
		c-5.465-3.652-10.561-1.534-16.086,0.769l-5.464,0.092l-7.03,2.886c-4.91-0.246-10.498-1.873-15.777-1.443
		c-7.153,0.614-13.631,3.224-19.463,3.224l-1.104-0.123l-5.525-1.014l0.613,0.308l-2.364,0.03
		c-7.151,1.259-11.388,6.969-19.125,6.232c-5.646-0.553-7.858-5.28-13.998-4.083c-3.743,0.122-2.884,4.113-6.446,4.358
		c-6.445-4.758-15.869-0.705-21.733,2.641c-7.429-6.877-16.025,0.859-22.595,1.229c-3.714,0.215-7.919-2.825-11.634-2.764
		c-4.758,0.093-9.179,3.162-14.029,3.5c-3.069,0.215-6.201-1.505-9.27-1.475c-6.754,0.031-12.587,3.961-19.34,3.961
		c-6.631,0-10.867-2.486-16.944-3.069c-3.931,1.564-6.693,4.082-10.867,5.494c-9.578-8.042-16.64,3.653-22.992,5.065
		c-6.571,1.412-15.135-3.775-22.871-1.781c-3.315,0.83-4.544,3.316-8.718,4.544c-4.881-5.034-13.078-4.021-18.112,0.829
		c-8.994-6.601-19.032,2.395-30.054,2.64c-7.98,0.185-17.159-4.543-23.76-3.254c-4.328,0.859-6.724,5.312-10.897,5.526
		c-6.263,0.275-13.968-6.846-18.05,1.564c-9.517-9.547-17.835,1.781-25.51,2.21c-3.192,0.215-6.846-3.069-10.1-2.885
		c-5.618,0.307-11.113,6.14-17.652,6.078c-3.345,0-6.661-3.07-10.099-2.886c-3.561,0.215-7.245,2.979-11.082,3.224
		c-3.5,0.245-7.521-1.688-10.714-1.32c-4.236,0.521-7.644,3.96-11.788,4.052c-4.604,0.123-9.394-3.376-13.077-2.64
		c-3.5,0.736-5.771,6.293-9.332,6.14c-5.587-4.052-20.568-2.272-25.541,2.24c-7.138-6.753-15.902-7.644-22.655,0.461
		c-7.245-8.135-14.597,1.903-20.998,2.579c-3.285,0.338-6.615-2.456-10.099-2.887c-9.839-1.319-16.945,2.518-25.97,6.048
		c-6.938-5.494-14.137-1.044-24.267-0.153c-4.053,0.338-8.227-1.014-11.374-0.521c-4.497,0.706-7.858,4.451-11.695,4.789
		c-4.405,0.43-8.427-2.948-12.356-2.702c-4.145,0.277-7.597,4.083-12.448,4.882c-4.835,0.828-10.683-2.21-15.303-1.658
		c-3.361,0.368-6.692,3.53-10.253,3.898c-4.267,0.461-9.209-2.179-13.798-1.842c-4.62,0.399-9.056,3.224-13.323,3.469
		c-4.681,0.276-9.301-2.18-13.799-1.812c-4.742,0.369-8.779,3.163-14.028,4.236c-9.425,1.903-14.429-1.073-20.552-1.228
		c-8.964-0.245-17.191,3.254-25.142,6.754c-6.169-4.145-18.526-4.882-28.211-2.087c-5.556,9.454-4.62,25.355,4.252,31.434
		c-6.293,6.631-4.083,17.667,2.041,23.314c-5.433,8.412-4.328,19.709,2.395,27.015c-7.229,6.446,0,16.7,4.144,21.673
		c-6.692,11.972-0.444,25.786,1.612,35.425c1.919,9.147-2.087,16.577-0.798,25.786c0.599,4.298,3.714,8.104,4.128,12.524
		c0.338,3.684-1.489,7.798-1.258,11.479c0.307,5.835,4.206,10.808,4.359,15.474c0.138,3.376-2.318,6.813-2.134,10.068
		c0.291,4.975,4.497,10.314,4.405,15.533c-0.092,4.912-3.177,8.35-2.702,12.341c0.46,4.174,4.589,7.613,4.866,12.463
		c0.185,3.929-2.978,8.165-2.64,13.077c0.599,9.088,3.331,17.498,2.302,26.339c3.04,2.578,3.93,5.465,3.899,8.596
		c0,0-2.241,7.429-1.888,11.234c-0.415,2.518-0.661,3.131-0.354,5.956c0.414,3.561,2.84,3.561,2.395,10.191
		c-0.629,3.744,3.668,6.507,2.671,11.665c-6.861,7.858-0.568,17.683,3.745,25.417c-6.707,6.632-3.561,17.56,2.104,24.068
		c-5.464,8.656-2.011,20.199,1.059,29.469c9.47,4.176,21.473-1.964,28.242-6.261c12.448,6.63,25.325,0.489,35.456-1.598
		c10.467-2.21,19.109,1.843,26.553,0.676c4.16-0.613,7.583-3.685,11.758-4.053c4.021-0.367,8.671,1.536,12.985,1.167
		c4.896-0.49,9.471-4.113,14.014-4.297c3.5-0.123,6.676,2.333,10.038,2.149c4.267-0.246,9.578-4.236,14.766-4.299
		c4.62-0.063,8.811,3.131,13.108,2.64c4.344-0.49,8.058-4.604,12.448-4.91c4.129-0.186,8.396,2.946,12.325,2.7
		c3.454-0.123,7.429-2.148,11.159-2.456c5.756-0.43,10.622,1.413,15.15,0.185c2.9-0.737,5.602-4.176,8.717-4.543
		c3.27-0.368,8.105,2.271,12.341,2.7c10.729,1.105,15.256-2.208,23.714-5.831c6.247,3.928,15.487,4.541,21.104-1.105
		c7.337,7.552,16.086,3.868,21.673-3.439c6.569,4.176,20.998,1.843,27.076-2.394c7.061,8.596,13.752,0.614,21.918-0.369
		c3.991-0.49,8.166,2.333,12.279,1.966c3.991-0.309,7.736-3.192,11.818-3.315c3.285-0.123,7.092,1.842,9.977,1.412
		c3.561-0.492,6.63-4.236,10.191-4.666c5.833-0.738,12.218,3.869,17.682,3.009c3.162-0.492,6.139-4.36,9.455-4.666
		c3.898-0.246,7.888,4.236,11.727,4.297c4.482,0.061,6.63-3.315,10.927-4.727c3.53-1.229,7.983-1.844,11.974-1.781
		c9.578,0.063,16.423,3.685,25.171,2.271c5.22-6.14,16.701-5.096,23.331-2.024c6.108-6.263,11.327-0.614,18.787-1.597
		c4.174-0.615,6.323-4.359,10.929-4.789c3.253-0.246,6.875,2.149,10.039,2.21c5.248,0.061,9.576-3.069,14.824-3.621
		c3.808-0.37,7.952,1.165,12.157,0.429c2.886-0.429,5.404-1.964,8.167-2.21c4.328-0.307,8.594,1.535,12.955,1.166
		c7.06-0.613,13.014-5.895,19.891-6.262c3.438-0.246,7.214,2.025,10.775,2.025c4.819,0,9.67-2.455,14.888-2.823
		c6.447-0.369,12.278-0.676,19.555-1.658c7.397-1.044,9.18,1.964,14.705,0.982c3.376-0.676,6.108-3.438,9.453-3.868
		c4.574-0.614,9.424,1.781,13.877,1.043c2.884-0.43,5.771-3.561,8.748-3.744c3.868-0.367,4.175,3.439,8.104,3.07
		c3.284-0.369,12.433-3.807,15.563-4.422c4.267-0.798,5.588,1.289,11.635,0.738c0,0,5.556,1.72,12.433-0.553
		c6.876-2.333,6.815-0.369,12.156-0.123L812.591,437.06z"/>
	<path d="M812.531,437.183l0.061-0.123l-1.811,0.307L812.531,437.183z M816.337,423.489c-7.798,0.063-13.6,2.089-18.572,4.299
		c-6.078,2.7-13.723,1.903-20.383,0.797c-6.661-1.104-7.245-1.841-14.551,0.799c-7.307,2.579-15.288,3.07-16.208,3.439l-0.309,0.123
		l-7.858-0.676l-5.526-0.368c-7.245,0.86-11.112,4.174-14.119,4.788c-4.453,0.982-10.191-3.807-27.382-2.333
		c-4.82,0.43-17.191,5.279-21.798,5.279c-3.928,0.063-7.766-2.208-11.54-1.964c-7.308,0.369-13.324,5.832-20.63,6.324
		c-3.224,0.245-6.323-1.473-9.24-1.473c-4.82,0-8.563,2.208-13.384,2.7c-4.881,0.43-9.67-1.29-14.398-0.246l-7.305,2.886
		c-8.259,0.859-18.235-5.156-24.744,2.948c-5.004-2.519-13.967-3.255-18.05,1.595c-7.581-7.612-20.075,1.29-31.618,1.966
		c-11.021,0.676-21.06-3.686-31.097-0.309c-3.531,1.168-5.126,4.053-9.424,4.606c-4.236-5.22-16.024-5.65-20.445,0.306
		c-7.981-2.333-21.856-5.525-27.874,1.658c-5.28-1.535-16.822-2.763-21.028,1.843c-6.784-3.255-17.958-2.149-24.036,2.087
		c-3.039-0.123-5.587-3.561-9.455-3.685c-5.341-0.184-11.48,5.221-19.277,4.666l-8.503-2.271c-5.679,0.492-9.731,6.322-13.016,7.245
		c-4.513-4.666-14.734-4.605-18.879,0.859c-8.718-9.088-17.114,1.473-28.518,2.517c-7.106,0.613-16.163-4.666-22.256-3.376
		c-2.901,0.613-4.973,4.419-7.889,5.217c-2.64,0.738-7.337-0.613-12.141-0.43c-4.344,0.186-8.887,2.519-11.911,2.519
		c-3.269,0.061-6.507-2.764-9.332-2.948c-6.416-0.306-9.563,4.604-15.472,5.158c-5.035,0.492-8.166-3.744-16.101-2.396
		c-3.362,0.615-6.248,3.501-10.269,3.931c-4.682,0.552-9.747-3.255-14.582-2.517c-2.993,0.489-5.756,3.928-8.718,4.541
		c-4.65,1.044-9.961-1.411-15.21-0.92c-4.713,0.49-9.118,3.745-13.262,4.175c-7.827,0.921-14.688-3.071-25.816-0.736
		c-3.515,0.736-6.063,3.069-9.517,3.867c-9.961,2.211-17.667-2.885-25.939-2.271c-6.416,0.49-11.282,6.999-17.605,6.815
		c-8.519-8.043,2.455-24.375-7.444-33.4c2.072-6.077,5.464-9.086,3.868-16.269c-0.952-4.361-5.541-6.202-6.093-9.332
		c-0.737-3.932,3.454-6.694,3.576-10.868l-3.392-6.999c-2.01-4.544-0.153-5.219,0.875-8.472c1.043-3.255-0.783-7.737-0.783-7.737
		l-2.133-5.28c0.783-3.622,2.072-7.183,2.67-10.498v-0.061l0.123-5.221c-0.629-2.822-4.467-5.033-5.249-7.858
		c-0.952-3.561,1.043-11.356,0-17.436l-2.103-6.63c0-3.317,2.823-6.385,2.977-9.332c0.354-6.51-4.589-9.578-5.156-15.473
		c-0.461-4.91,3.898-8.595,2.333-16.821c-0.629-3.255-3.454-5.955-3.868-9.518c-0.538-4.91,3.299-9.822,2.517-14.611
		c-0.506-3.069-3.898-5.648-4.559-8.719c-1.013-4.666,1.412-10.131,0.936-15.227c-0.43-4.727-3.699-9.024-4.175-13.26
		c-0.936-8.167,3.208-15.35,0.691-26.585c-0.599-2.64-3.008-5.342-3.806-8.718c-3.101-13.938,8.549-30.022-4.773-37.452
		c2.67-4.42,4.051-5.341,3.714-9.455c-0.446-5.279-6.678-7.98-7.106-12.217c-0.476-4.421,6.093-8.779,5.494-14.858
		c-0.537-5.586-4.835-6.691-7.827-11.435c1.167-5.71,5.541-7.337,4.973-12.586c-0.691-6.508-12.295-11.144-7.106-20.537
		c6.953-5.495,13.86,1.995,20.613,1.965c6.861-0.062,14.182-6.846,25.188-6.753c5.848,0.062,14.305,2.916,23.545,0.982
		c4.021-0.859,7.767-3.623,11.758-4.053c4.374-0.491,9.654,2.026,14.551,1.75c5.218-0.307,10.437-3.623,14.842-3.592
		c3.423,0.03,6.784,2.947,10.084,2.917c4.682-0.093,8.641-4.513,13.2-4.942c6.324-0.615,11.251,2.763,16.792,1.564
		c3.239-0.705,6.477-4.236,9.455-4.635c4.973-0.583,9.563,3.407,15.349,2.455c3.729-0.613,5.156-2.271,9.454-4.604
		c10.699,3.899,25.679-6.722,32.694,1.688c9.147-0.92,14.09-6.784,22.854-7.306c9.485-0.583,20.184,8.135,27.06-2.363
		c5.664,3.99,15.441,3.407,19.463-2.456c3.453,0.184,7.827,5.188,13.307,4.881c5.556-0.307,10.622-4.912,17.006-4.513
		c7.491,0.46,14.766,4.819,19.402-3.192c6.569,1.965,17.988,3.438,23.33-2.057c5.925,2.916,16.915,1.166,22.533-1.996
		c5.802,3.991,10.744,3.316,19.002,0.645l7.98-3.744c3.286-0.153,6.907,3.161,10.131,2.885c4.635-0.307,8.134-3.621,11.634-5.556
		c4.237-0.952,7.981,3.561,12.402,3.469c2.609-0.062,5.894-3.561,9.516-3.867c2.947-0.216,7.736,2.946,13.016,1.871
		c3.746-0.705,6.878-2.916,9.395-5.341c7.06,1.29,12.585,3.47,20.751,3.5c7.737,0,14.489-4.666,21.519-4.942
		c5.863-0.216,13.784,5.587,17.958-2.333c2.946,1.565,6.264,3.959,10.191,3.684c3.316-0.246,6.202-3.807,10.192-4.697
		c6.999-1.565,15.041,2.886,21.365,1.935c5.281-0.798,9.609-5.096,13.016-7.214c3.224,0.798,5.955,2.425,9.271,2.21
		c3.867-0.215,7.092-3.347,11.02-3.991c3.932-0.613,7.737,1.566,13.047,1.903c7.767,0.461,15.227-3.868,22.317-4.236l8.504,1.535
		c5.924,0.092,10.805-3.623,15.563-3.623c3.594,0,6.724,2.825,10.101,2.887c4.267,0.092,8.259-3.776,13.263-4.175
		c4.174-0.368,8.963,2.946,12.339,2.701c4.236-0.276,7.306-3.131,10.96-4.758c5.924,2.731,13.659,2.823,18.786-1.628
		c8.197,4.851,25.265,5.803,31.59-2.763c5.34,2.395,10.68,0.891,17.005-0.583l3.284,1.72l7.03-2.979
		c4.973-0.553,9.824,3.285,14.611,2.486l3.071-1.35l6.323-0.769l4.666-2.425c3.131,0.399,6.415,1.289,9.885,0.982l4.176-1.075
		l0.797,0.062c3.531,0.123,8.289-2.086,12.955-3.223c3.929,0.338,7.921,1.229,12.524,1.443l5.494,1.319l9.547-4.697l6.815-1.596
		c8.196-0.399,15.655,3.653,22.963,2.671c6.815-0.921,12.646-9.179,19.891-6.293c0.676,6.753-1.043,13.998,3.071,17.928
		c-8.505,5.525-1.168,12.401-0.369,21.242c0.307,4.021-2.333,8.473-1.964,12.279c0.306,3.469,3.561,6.323,3.836,9.486
		c0.338,3.714-4.205,7.797-3.468,19.278c0,0,1.473,4.881,3.897,10.866l0.646,1.535l1.412,6.354
		c0.676,7.338-4.637,16.271-3.347,22.211c0.646,2.946,4.452,5.034,5.25,7.919c0.951,3.438-0.983,10.622-0.063,16.639l2.149,7.429
		c0,3.315-2.824,6.201-2.947,9.332c-0.367,6.263,4.574,9.64,5.097,15.472c0.521,5.097-3.686,8.104-2.333,16.086
		c0.584,3.5,3.468,6.385,3.929,10.253c0.522,4.974-3.315,9.701-2.519,14.612c0.463,3.009,3.869,5.648,4.545,8.718
		c0.951,4.421-1.443,9.885-0.922,15.227c0.461,4.973,3.868,9.638,4.236,13.997c0.676,7.49-3.068,14.367-0.827,25.051
		c0.705,3.377,3.101,6.2,3.898,10.251c2.487,12.036-6.417,23.393,1.289,31.681c-8.472,8.719,4.145,14.367,4.85,20.813
		c0.492,4.729-6.109,8.842-5.525,14.857c0.521,5.465,4.574,6.509,7.796,11.419c-0.98,5.465-5.217,7.062-5.033,11.851
		c0.275,5.34,9.086,11.358,6.569,22.901c-7.921,3.561-12.831-3.438-19.248-3.622c-7.704-0.246-16.577,7.12-26.677,6.874
		c-7.06-0.184-12.616-3.192-22.809-1.043c-3.806,0.799-7.458,3.562-11.757,4.052c-4.42,0.492-9.699-2.024-14.549-1.78
		c-9.703,0.553-16.886,7.122-24.191,0.615c-4.941-0.124-9.332,4.604-13.938,5.034c-6.385,0.613-11.173-2.763-16.79-1.597
		C818.825,423.552,816.337,423.489,816.337,423.489 M812.591,437.06c3.775-0.983,8.137-3.867,12.311-4.543
		c4.789-0.8,10.684,2.21,15.287,1.719c3.652-0.43,7.183-3.747,11.051-4.052c3.623-0.246,7.613,2.21,11.542,2.087
		c4.882-0.246,9.823-3.316,14.798-3.623c5.279-0.307,9.762,2.271,14.551,1.782c4.42-0.492,8.228-3.193,13.261-4.178
		c9.209-1.841,14.396,1.045,20.567,1.229c8.841,0.246,17.253-3.254,25.141-6.755c6.171,4.114,18.512,4.852,28.213,2.028
		c2.7-7.859,1.72-26.34-4.27-31.436c6.294-6.568,4.086-17.62-2.055-23.269c5.219-8.902,5.156-20.69-2.334-27.014
		c2.949-5.525,0.921-11.974-2.209-16.516c6.937-11.421,0.492-25.173-1.536-34.688c-1.903-9.026,2.028-16.761,0.799-25.849
		c-0.615-4.175-3.745-8.227-4.113-12.463c-0.369-3.683,1.474-7.674,1.228-11.48c-0.307-5.525-4.174-10.683-4.391-15.533
		c-0.121-3.622,2.425-7.184,2.12-10.744c-0.492-5.096-4.453-9.64-4.361-14.797c0.093-4.728,3.316-8.595,2.642-13.076
		c-0.553-3.991-4.605-7.552-4.79-11.727c-0.245-3.93,2.825-7.92,2.763-11.604c-0.06-3.683-2.24-7.612-2.578-11.91
		c-0.369-5.587,1.351-10.929,0.215-15.165c-0.768-2.823-4.206-5.525-4.573-8.672c-0.614-5.495,3.407-11.941,2.946-18.45
		c-0.184-3.1-0.828-5.464-1.595-7.459c1.411-6.262-3.808-12.862-3.685-18.94c0.123-3.407,2.978-6.385,2.946-10.069
		c-0.061-5.586-2.394-7.275-4.113-12.524c3.93-6.231,1.626-17.282-2.056-23.33c6.966-4.544,2.301-12.095,1.411-18.295
		C946.771,11.174,950.64,1.29,943.149,0c-7.767,0.215-20.813,1.351-26.646,6.876c-6.384-3.376-12.77-3.499-18.816-2.517
		l-3.686-0.614c-4.941,0.185-7.704,2.211-11.389,4.359l-1.595,0.338l-6.938,0.307c-3.069-0.982-6.324-1.29-9.762-1.014l-8.35-0.153
		l-7.706,2.486c-5.465-3.652-10.561-1.534-16.086,0.769l-5.464,0.092l-7.03,2.886c-4.91-0.246-10.498-1.873-15.777-1.443
		c-7.153,0.614-13.631,3.224-19.463,3.224l-1.104-0.123l-5.525-1.014l0.613,0.308l-2.364,0.03
		c-7.151,1.259-11.388,6.969-19.125,6.232c-5.646-0.553-7.858-5.28-13.998-4.083c-3.743,0.122-2.884,4.113-6.446,4.358
		c-6.445-4.758-15.869-0.705-21.733,2.641c-7.429-6.877-16.025,0.859-22.595,1.229c-3.714,0.215-7.919-2.825-11.634-2.764
		c-4.758,0.093-9.179,3.162-14.029,3.5c-3.069,0.215-6.201-1.505-9.27-1.475c-6.754,0.031-12.587,3.961-19.34,3.961
		c-6.631,0-10.867-2.486-16.944-3.069c-3.931,1.564-6.693,4.082-10.867,5.494c-9.578-8.042-16.64,3.653-22.992,5.065
		c-6.571,1.412-15.135-3.775-22.871-1.781c-3.315,0.83-4.544,3.316-8.718,4.544c-4.881-5.034-13.078-4.021-18.112,0.829
		c-8.994-6.601-19.032,2.395-30.054,2.64c-7.98,0.185-17.159-4.543-23.76-3.254c-4.328,0.859-6.724,5.312-10.897,5.526
		c-6.263,0.275-13.968-6.846-18.05,1.564c-9.517-9.547-17.835,1.781-25.51,2.21c-3.192,0.215-6.846-3.069-10.1-2.885
		c-5.618,0.307-11.113,6.14-17.652,6.078c-3.345,0-6.661-3.07-10.099-2.886c-3.561,0.215-7.245,2.979-11.082,3.224
		c-3.5,0.245-7.521-1.688-10.714-1.32c-4.236,0.521-7.644,3.96-11.788,4.052c-4.604,0.123-9.394-3.376-13.077-2.64
		c-3.5,0.736-5.771,6.293-9.332,6.14c-5.587-4.052-20.568-2.272-25.541,2.24c-7.138-6.753-15.902-7.644-22.655,0.461
		c-7.245-8.135-14.597,1.903-20.998,2.579c-3.285,0.338-6.615-2.456-10.099-2.887c-9.839-1.319-16.945,2.518-25.97,6.048
		c-6.938-5.494-14.137-1.044-24.267-0.153c-4.053,0.338-8.227-1.014-11.374-0.521c-4.497,0.706-7.858,4.451-11.695,4.789
		c-4.405,0.43-8.427-2.948-12.356-2.702c-4.145,0.277-7.597,4.083-12.448,4.882c-4.835,0.828-10.683-2.21-15.303-1.658
		c-3.361,0.368-6.692,3.53-10.253,3.898c-4.267,0.461-9.209-2.179-13.798-1.842c-4.62,0.399-9.056,3.224-13.323,3.469
		c-4.681,0.276-9.301-2.18-13.799-1.812c-4.742,0.369-8.779,3.163-14.028,4.236c-9.425,1.903-14.429-1.073-20.552-1.228
		c-8.964-0.245-17.191,3.254-25.142,6.754c-6.169-4.145-18.526-4.882-28.211-2.087c-5.556,9.454-4.62,25.355,4.252,31.434
		c-6.293,6.631-4.083,17.667,2.041,23.314c-5.433,8.412-4.328,19.709,2.395,27.015c-7.229,6.446,0,16.7,4.144,21.673
		c-6.692,11.972-0.444,25.786,1.612,35.425c1.919,9.147-2.087,16.577-0.798,25.786c0.599,4.298,3.714,8.104,4.128,12.524
		c0.338,3.684-1.489,7.798-1.258,11.479c0.307,5.835,4.206,10.808,4.359,15.474c0.138,3.376-2.318,6.813-2.134,10.068
		c0.291,4.975,4.497,10.314,4.405,15.533c-0.092,4.912-3.177,8.35-2.702,12.341c0.46,4.174,4.589,7.613,4.866,12.463
		c0.185,3.929-2.978,8.165-2.64,13.077c0.599,9.088,3.331,17.498,2.302,26.339c3.04,2.578,3.93,5.465,3.899,8.596
		c0,0-2.241,7.429-1.888,11.234c-0.415,2.518-0.661,3.131-0.354,5.956c0.414,3.561,2.84,3.561,2.395,10.191
		c-0.629,3.744,3.668,6.507,2.671,11.665c-6.861,7.858-0.568,17.683,3.745,25.417c-6.707,6.632-3.561,17.56,2.104,24.068
		c-5.464,8.656-2.011,20.199,1.059,29.469c9.47,4.176,21.473-1.964,28.242-6.261c12.448,6.63,25.325,0.489,35.456-1.598
		c10.467-2.21,19.109,1.843,26.553,0.676c4.16-0.613,7.583-3.685,11.758-4.053c4.021-0.367,8.671,1.536,12.985,1.167
		c4.896-0.49,9.471-4.113,14.014-4.297c3.5-0.123,6.676,2.333,10.038,2.149c4.267-0.246,9.578-4.236,14.766-4.299
		c4.62-0.063,8.811,3.131,13.108,2.64c4.344-0.49,8.058-4.604,12.448-4.91c4.129-0.186,8.396,2.946,12.325,2.7
		c3.454-0.123,7.429-2.148,11.159-2.456c5.756-0.43,10.622,1.413,15.15,0.185c2.9-0.737,5.602-4.176,8.717-4.543
		c3.27-0.368,8.105,2.271,12.341,2.7c10.729,1.105,15.256-2.208,23.714-5.831c6.247,3.928,15.487,4.541,21.104-1.105
		c7.337,7.552,16.086,3.868,21.673-3.439c6.569,4.176,20.998,1.843,27.076-2.394c7.061,8.596,13.752,0.614,21.918-0.369
		c3.991-0.49,8.166,2.333,12.279,1.966c3.991-0.309,7.736-3.192,11.818-3.315c3.285-0.123,7.092,1.842,9.977,1.412
		c3.561-0.492,6.63-4.236,10.191-4.666c5.833-0.738,12.218,3.869,17.682,3.009c3.162-0.492,6.139-4.36,9.455-4.666
		c3.898-0.246,7.888,4.236,11.727,4.297c4.482,0.061,6.63-3.315,10.927-4.727c3.53-1.229,7.983-1.844,11.974-1.781
		c9.578,0.063,16.423,3.685,25.171,2.271c5.22-6.14,16.701-5.096,23.331-2.024c6.108-6.263,11.327-0.614,18.787-1.597
		c4.174-0.615,6.323-4.359,10.929-4.789c3.253-0.246,6.875,2.149,10.039,2.21c5.248,0.061,9.576-3.069,14.824-3.621
		c3.808-0.37,7.952,1.165,12.157,0.429c2.886-0.429,5.404-1.964,8.167-2.21c4.328-0.307,8.594,1.535,12.955,1.166
		c7.06-0.613,13.014-5.895,19.891-6.262c3.438-0.246,7.214,2.025,10.775,2.025c4.819,0,9.67-2.455,14.888-2.823
		c6.447-0.369,12.278-0.676,19.555-1.658c7.397-1.044,9.18,1.964,14.705,0.982c3.376-0.676,6.108-3.438,9.453-3.868
		c4.574-0.614,9.424,1.781,13.877,1.043c2.884-0.43,5.771-3.561,8.748-3.744c3.868-0.367,4.175,3.439,8.104,3.07
		c3.284-0.369,12.433-3.807,15.563-4.422c4.267-0.798,5.588,1.289,11.635,0.738c0,0,5.556,1.72,12.433-0.553
		c6.876-2.333,6.815-0.369,12.156-0.123L812.591,437.06z"/>
	<polygon fill="#FFFFFF" points="336.562,372.41 304.943,375.233 301.014,330.23 332.632,327.468 	"/>
	<path d="M174.723,346.194l-15.302,56.423c-3.055,10.866-5.096,21.978-6.57,33.092c-4.22-0.369-7.075-0.492-11.189-0.125
		c-4.313,0.371-8.81,1.168-13.046,2.274c-5.188-18.113-31.158-87.552-49.73-127.028c6.063,0.43,13.046,0,19.263-0.553
		c5.817-0.491,12.141-1.659,17.175-2.64c5.649,19.217,8.979,29.102,19.479,58.324c6.262,17.19,8.426,22.532,11.036,28.734
		l10.621-38.801c4.882-17.621,9.025-35.427,11.666-52.862c5.126,0.306,9.117,0.306,12.479,0c3.392-0.308,6.738-0.922,10.636-2.027
		c1.566,4.975,2.855,8.841,6.248,17.437c6.784,17.007,26.4,61.643,29.961,69.685l11.005-56.054
		c4.804-24.866,4.957-27.322,4.988-35.671c3.991,0.063,8.211,0.43,12.141,0.121c3.96-0.367,7.291-1.228,9.869-2.024
		c-1.672,5.033-1.949,6.017-7.92,30.821l-16.254,67.473c-1.796,7.55-5.695,27.75-6.892,35.792c-3.99-0.244-7.444-0.488-11.373-0.121
		c-4.114,0.367-8.243,1.105-12.295,2.21c-5.403-14.121-9.394-25.294-16.024-40.093L174.723,346.194z"/>
	<path d="M125.361,443.567l-1.289-4.421c-5.127-17.928-31.281-87.733-49.485-126.351l-3.423-7.245l8.012,0.551
		c5.219,0.369,10.852,0.125,18.542-0.551c4.59-0.369,10.192-1.229,16.669-2.518l4.236-0.859l1.228,4.111
		c5.541,18.91,8.81,28.611,19.401,58.082c2.455,6.753,4.267,11.726,5.755,15.593l6.907-25.294
		c5.373-19.463,9.148-36.591,11.543-52.371l0.629-4.235l4.297,0.246c5.096,0.307,8.749,0.307,11.818,0.062
		c2.993-0.246,5.971-0.859,9.747-1.902l4.405-1.29l1.35,4.357c1.504,4.789,2.732,8.535,6.155,17.13
		c4.851,12.095,16.316,38.557,23.837,55.81l8.104-41.32c4.912-25.171,4.912-27.014,4.942-34.749l0.031-4.729h4.712l4.083,0.123
		h7.614c3.745-0.307,6.845-1.228,8.856-1.78l8.688-2.7l-2.809,8.594c-1.566,4.852-1.781,5.65-7.797,30.514l-16.239,67.475
		c-1.796,7.49-5.695,27.688-6.831,35.362l-0.629,4.299l-5.556-0.309c-3.238-0.184-6.17-0.367-9.439-0.121
		c-3.792,0.367-7.659,1.043-11.465,2.087l-4.114,1.105l-4.497-11.788c-4.129-10.807-7.674-20.199-12.955-31.987l-14.551-32.416
		l-11.88,43.714c-2.717,9.699-4.82,20.32-6.446,32.538l-0.599,4.482l-4.497-0.43c-3.776-0.369-6.508-0.49-10.346-0.123
		c-4.113,0.309-8.365,1.044-12.263,2.087L125.361,443.567z M86.314,315.68c17.067,37.574,38.541,94.61,45.524,116.591
		c3.101-0.677,6.278-1.106,9.394-1.411l7.536-0.186c1.612-10.806,3.623-20.384,6.109-29.347l18.757-69.133l25.372,56.484
		c5.402,12.033,9.179,21.98,13.138,32.54l1.504,3.868c2.993-0.613,5.986-1.043,8.934-1.352l7.827-0.061
		c1.597-9.518,4.682-25.295,6.293-31.987l16.239-67.535c3.085-12.771,4.666-19.216,5.725-23.268l-2.671,0.305l-7.889,0.063
		c-0.246,5.894-1.167,11.728-5.065,31.741l-13.86,70.729l-6.062-13.691c-4.651-10.56-23.423-53.354-30.023-69.868
		c-2.486-6.323-3.868-10.13-5.003-13.508l-7.061,1.106c-2.579,0.244-5.418,0.307-8.934,0.184
		c-2.456,14.98-6.093,31.128-11.097,49.24l-14.213,51.877l-5.28-12.524c-2.64-6.2-4.804-11.54-11.128-28.978
		c-9.869-27.444-13.415-37.942-18.357-54.52c-5.081,0.92-9.578,1.596-13.476,1.903C93.927,315.373,89.859,315.619,86.314,315.68"/>
	<path d="M312.003,288.911c3.254,0.492,6.662,0.553,9.885,0.246c3.008-0.246,6.14-0.921,9.087-1.903
		c22.225,50.282,48.441,101.057,62.438,127.458c-5.894-0.43-11.91-0.125-17.743,0.367c-6.202,0.552-14.09,1.228-19.831,2.885
		c-7.122-19.031-12.708-30.513-15.226-35.915c-6.416,0.307-12.832,0.49-19.585,1.104c-6.938,0.615-14.274,1.476-21.565,2.458
		c-2.395,9.516-6.062,23.82-8.058,38.004c-3.607-0.246-16.807,0.367-20.828,1.841C279.909,400.222,302.288,327.038,312.003,288.911
		 M316.025,328.327l-12.386,42.547c5.126-0.061,10.207-0.367,15.272-0.797c5.249-0.492,10.499-1.29,15.748-1.966L316.025,328.327z"
		/>
	<path d="M262.58,433.376l3.545-9.578c8.903-24.006,31.373-97.005,41.304-136.052l1.044-4.114l4.205,0.613
		c2.824,0.43,5.925,0.492,8.78,0.246l8.012-1.72l4.083-1.411l1.72,3.99c22.409,50.713,48.686,101.425,62.316,127.089l3.99,7.552
		l-8.472-0.613c-5.096-0.369-9.792-0.246-17.007,0.43c-6.139,0.489-13.66,1.165-18.94,2.701l-4.175,1.166l-1.535-4.053
		c-6.047-16.023-10.836-26.522-13.783-32.723l-2.948,0.122c-4.297,0.246-8.78,0.43-13.292,0.859
		c-5.986,0.492-12.109,1.167-18.172,1.966c-2.287,9.086-5.434,21.978-7.168,34.381l-0.599,4.42l-4.39-0.367h-1.857
		c-5.787,0-14.658,0.674-17.037,1.595L262.58,433.376z M315.564,294.007c-9.485,36.347-28.027,97.005-37.866,125.432
		c3.623-0.369,7.291-0.553,9.654-0.615c2.011-12.462,5.127-24.803,7.229-33.275l1.059-4.174l3.146-0.43
		c7.291-0.984,14.627-1.843,21.811-2.519c4.728-0.369,9.27-0.613,13.629-0.799l6.079-0.306l3.223-0.184l1.873,4.051
		c2.64,5.587,7.367,15.534,13.384,31.251c5.341-1.045,11.358-1.596,16.423-2.026c4.021-0.367,7.275-0.553,10.315-0.613
		c-14.029-26.647-36.991-71.465-57.19-116.897l-6.078,0.983L315.564,294.007 M297.345,375.663l17.636-60.659l26.676,56.976
		l-6.384,0.86l-4.759,0.613c-3.653,0.492-7.429,0.982-11.205,1.352c-5.156,0.429-10.421,0.675-15.609,0.735L297.345,375.663z
		 M317.038,341.651l-7.061,24.311l8.534-0.613c3.009-0.246,6.14-0.614,9.148-1.044L317.038,341.651z"/>
	<path d="M413.521,311.627c-1.074-11.972-2.885-22.286-4.512-29.715c6.109,0.43,12.156,0.063,18.358-0.43
		c5.801-0.491,11.388-1.411,17.006-2.64c-0.122,13.813,0.491,29.717,1.167,37.39l5.342,61.027c0.46,5.463,1.167,11.113,1.811,16.515
		c12.218-1.044,32.693-2.824,43.928-6.323c-0.338,4.605,0.983,15.472,1.599,18.05c-9.457,0.123-21.735,0.431-32.264,1.353
		c-13.139,1.165-28.273,3.376-45.341,5.463c0.245-10.068-0.123-20.997-1.29-34.32L413.521,311.627z"/>
	<path d="M415.762,417.658l0.123-5.465c0.246-10.191-0.153-20.874-1.29-33.828l-5.771-66.308c-0.859-9.64-2.333-19.462-4.42-29.103
		l-1.289-6.139l6.201,0.369c5.279,0.43,10.068,0.244,17.62-0.43c5.586-0.491,10.959-1.29,16.393-2.519l5.771-1.288l-0.062,5.954
		c-0.122,13.509,0.522,29.41,1.167,36.899l5.342,61.026c0.368,3.93,0.798,7.859,1.289,11.85c12.095-1.044,28.918-2.824,38.434-5.71
		l6.63-2.024l-0.552,6.937c-0.307,3.869,0.921,14.244,1.474,16.577l1.352,5.709l-5.926,0.063c-8.564,0.061-21.089,0.368-31.895,1.29
		c-8.472,0.734-17.958,1.964-27.996,3.253c-5.526,0.737-11.236,1.534-17.191,2.21L415.762,417.658z M414.841,286.824
		c1.535,8.104,2.64,16.331,3.376,24.373l5.771,66.37c0.983,10.989,1.413,20.505,1.413,29.407c3.99-0.49,7.919-1.043,11.727-1.535
		c10.13-1.288,19.708-2.578,28.395-3.314c8.994-0.798,19.063-1.105,27.198-1.228l-0.706-7.368
		c-11.911,2.578-28.395,4.051-38.895,4.974l-4.512,0.367l-0.583-4.48c-0.706-5.649-1.381-11.237-1.872-16.7l-5.342-61.027
		c-0.552-6.63-1.105-19.4-1.167-32.048c-3.929,0.674-7.859,1.166-11.849,1.534C422.577,286.641,418.586,286.824,414.841,286.824"/>
	<path d="M520.564,308.743c-1.074-12.034-2.702-24.189-5.064-36.101c5.863,0.184,11.757,0.061,17.559-0.43
		c14.459-1.228,22.378-3.071,36.868-4.359c35.886-3.132,65.692,15.471,69.376,57.158c3.192,36.653-17.007,69.622-64.556,73.798
		c-6.569,0.615-19.586,0.615-24.652,1.045c-3.377,0.305-14.457,1.411-23.205,3.13c0.059-12.464-0.246-24.928-1.353-37.327
		L520.564,308.743z M557.464,371.366c0.396,4.666,1.043,9.578,1.625,14.244c2.303,0.184,0,0.92,6.2,0.43
		c10.53-0.922,22.749-4.053,30.792-14.244c10.865-14.061,9.975-37.022,9.393-44.021c-1.044-11.419-4.697-29.469-17.836-39.169
		c-10.498-7.553-20.475-6.877-28.58-6.141c-9.547,0.799-6.477,0.736-8.718,1.104c0.369,3.991,1.043,18.665,1.658,25.049
		L557.464,371.366z"/>
	<path d="M522.161,408.757v-5.772c0.092-14.121-0.367-25.847-1.352-36.897l-4.942-56.977c-1.105-12.401-2.763-24.373-5.004-35.608
		l-1.164-5.834l5.953,0.246c5.711,0.246,11.421,0.123,17.007-0.367c7.091-0.677,12.709-1.413,18.174-2.149
		c5.555-0.798,11.298-1.597,18.693-2.271l8.044-0.309c37.605,0,63.084,23.638,66.398,61.764c1.751,20.078-3.284,38.68-14.211,52.432
		c-12.128,15.287-31.005,24.436-54.614,26.522c-3.62,0.309-8.963,0.43-14.059,0.615c-4.297,0.061-8.349,0.184-10.561,0.369
		c-3.498,0.367-14.365,1.473-22.716,3.13L522.161,408.757z M521.209,277.43c1.748,9.887,3.101,20.199,4.052,30.884l4.973,56.913
		c0.829,9.884,1.321,20.198,1.382,32.17c9.055-1.411,17.927-2.271,18.05-2.271c2.518-0.184,6.722-0.309,11.144-0.43
		c5.002-0.123,10.16-0.246,13.537-0.553c20.937-1.843,37.544-9.762,48.012-22.961c9.578-12.034,13.814-27.875,12.218-45.741
		c-2.886-33.275-24.221-53.229-57.006-53.229l-7.214,0.367c-7.153,0.613-12.833,1.412-18.234,2.149
		c-5.588,0.736-11.297,1.535-18.663,2.21C529.406,277.246,525.291,277.43,521.209,277.43 M562.005,390.95L562.005,390.95
		l-3.438-0.674l-3.562-0.246l-0.613-3.807c-0.552-4.482-1.228-9.516-1.628-14.428l-5.493-62.807
		c-0.309-3.562-0.676-9.764-1.014-15.229c-0.246-4.297-0.461-8.043-0.645-9.762l-0.369-4.297l4.298-0.799
		c1.351-0.368,1.995-0.552,9.148-1.165l7.858-0.43c5.772,0,14.55,0.797,23.853,7.489c14.151,10.438,18.542,28.916,19.77,42.547
		c0.584,7.183,1.688,31.804-10.407,47.336c-7.306,9.332-18.786,14.736-34.045,16.025L562.005,390.95 M555.344,287.5l0.338,5.647
		c0.307,5.404,0.676,11.543,0.982,15.043l5.495,62.807c0.275,3.438,0.736,7.06,1.135,10.438l1.599-0.123
		c12.737-1.105,21.731-5.158,27.442-12.462c10.223-13.14,8.811-36.163,8.412-40.646c-1.015-11.728-4.637-27.504-15.901-35.731
		c-5.465-3.929-11.113-5.711-18.297-5.711l-7.061,0.369L555.344,287.5"/>
	<path d="M736.954,387.084c-41.904,3.683-70.975-16.517-74.843-60.66c-3.469-39.662,16.793-70.788,64.129-74.902
		c40.397-3.561,71.463,15.717,75.27,59.125C805.746,358.902,774.741,383.768,736.954,387.084 M727.774,264.845
		c-28.549,2.456-33.982,30.021-31.403,59.554c3.284,37.327,19.861,51.081,39.414,49.361c23.854-2.087,34.72-23.883,31.559-59.737
		C764.64,283.018,752.209,262.696,727.774,264.845"/>
	<path d="M727.53,392.24c-40.892,0-66.463-23.883-70.114-65.386c-4.023-45.986,21.549-75.885,68.395-79.999
		c3.253-0.307,6.478-0.43,9.637-0.43c40.8,0,67.26,23.821,70.791,63.79c2.087,23.882-4.115,44.206-17.836,58.755
		c-12.31,13.078-29.992,20.997-51.05,22.779C734.037,392.117,730.72,392.24,727.53,392.24 M735.447,255.819
		c-2.884,0-5.83,0.185-8.81,0.43c-41.594,3.623-63.39,29.039-59.828,69.745c3.191,36.653,24.772,56.791,60.721,56.791
		c2.915,0,5.953-0.121,9.023-0.367c18.694-1.659,34.26-8.535,45.003-19.894c11.849-12.585,17.13-30.33,15.287-51.448
		C793.743,275.956,771.364,255.819,735.447,255.819 M732.625,378.611L732.625,378.611c-10.899,0-36.716-5.281-40.952-53.846
		c-4.389-50.466,16.976-62.991,35.671-64.587l3.866-0.184c23.301,0,37.82,19.032,40.829,53.598
		c1.688,18.91-0.43,34.074-6.139,45.126c-6.14,11.726-16.394,18.541-29.686,19.707L732.625,378.611 M731.21,269.388l-3.038,0.123
		c-7.796,0.676-31.587,2.763-27.106,54.457c2.579,29.164,13.785,45.187,31.56,45.187l2.763-0.121
		c10.066-0.859,17.527-5.834,22.101-14.674c4.943-9.395,6.692-22.839,5.157-39.97C760.867,293.886,753.96,269.388,731.21,269.388"/>
	<path d="M861.708,330.537l-0.828-8.902c-1.903-20.813,26.001-32.661,23.883-55.745c-1.351-14.245-12.095-22.533-26.677-19.157
		c-12.555,3.009-16.147,20.261-13.385,20.015c8.013-0.857,14.152,5.466,14.736,12.586c0.582,6.693-4.574,15.043-14.551,16.025
		c-13.479,1.165-22.441-8.841-23.607-21.735c-2.271-24.68,18.48-40.396,41.134-42.484c21.827-2.026,48.964,6.815,51.328,32.477
		c3.069,33.094-38.434,38.559-36.069,64.282l0.123,1.166L861.708,330.537z M870.887,341.589c9.116-0.921,16.761,5.342,17.62,14.49
		c0.891,9.147-5.402,16.761-14.488,17.62c-9.148,0.921-16.761-5.404-17.653-14.49C855.476,350.061,861.77,342.448,870.887,341.589"
		/>
	<path d="M872.299,378.549c-10.867,0-19.523-7.921-20.629-18.91c-1.106-11.603,7.122-21.61,18.756-22.778
		c11.881-1.104,21.643,7.124,22.778,18.789c1.135,11.603-7.091,21.61-18.727,22.776L872.299,378.549 M872.605,346.194l-1.288,0.061
		c-6.446,0.676-10.899,6.018-10.253,12.524c0.644,6.509,5.862,10.93,12.492,10.254c6.478-0.613,10.898-6.018,10.285-12.524
		C883.226,350.43,878.623,346.194,872.605,346.194 M857.471,335.633l-1.289-13.567c-1.104-11.973,5.801-20.935,12.495-29.653
		c6.322-8.288,12.308-16.087,11.389-26.034c-0.891-9.822-6.754-15.654-15.625-15.654l-5.279,0.676
		c-5.772,1.351-8.965,7.06-10.131,10.805c7.981,1.351,14.366,8.227,15.102,16.762c0.799,9.21-6.2,19.891-18.848,21.059
		c-15.35,1.411-27.198-9.701-28.734-25.971c-2.577-28.241,20.876-45.371,45.433-47.581c24.866-2.333,53.907,8.718,56.484,36.775
		c1.844,19.893-10.376,30.821-21.181,40.46c-8.473,7.552-15.81,14.059-14.92,23.76l0.676,5.832L857.471,335.633z M864.441,241.269
		c13.629,0,23.697,9.701,24.987,24.191c1.289,13.689-6.446,23.76-13.293,32.661c-6.048,7.92-11.327,14.796-10.56,23.084l0.399,4.176
		l6.938-0.615c0.459-12.4,9.424-20.384,18.11-28.117c10.008-8.965,19.463-17.376,18.051-32.603
		c-1.935-20.996-23.086-28.425-40.581-28.425l-5.65,0.245c-19.862,1.78-38.923,15.226-36.867,37.327
		c0.828,9.211,7.03,18.48,18.48,17.437c7.581-0.736,10.621-6.937,10.283-10.867c-0.369-4.357-4.113-8.902-9.518-8.35l-0.582,0.062
		c-2.425,0-5.004-1.657-5.465-5.401c-0.644-5.771,4.574-20.813,17.837-23.884L864.441,241.269"/>
	<path fill="#EE2A24" d="M174.723,346.194l-15.302,56.423c-3.055,10.866-5.096,21.978-6.57,33.092
		c-4.22-0.369-7.075-0.492-11.189-0.125c-4.313,0.371-8.81,1.168-13.046,2.274c-5.188-18.113-31.158-87.552-49.73-127.028
		c6.063,0.43,13.046,0,19.263-0.553c5.817-0.491,12.141-1.659,17.175-2.64c5.649,19.217,8.979,29.102,19.479,58.324
		c6.262,17.19,8.426,22.532,11.036,28.734l10.621-38.801c4.882-17.621,9.025-35.427,11.666-52.862c5.126,0.306,9.117,0.306,12.479,0
		c3.392-0.308,6.738-0.922,10.636-2.027c1.566,4.975,2.855,8.841,6.248,17.437c6.784,17.007,26.4,61.643,29.961,69.685
		l11.005-56.054c4.804-24.866,4.957-27.322,4.988-35.671c3.991,0.063,8.211,0.43,12.141,0.121c3.96-0.367,7.291-1.228,9.869-2.024
		c-1.672,5.033-1.949,6.017-7.92,30.821l-16.254,67.473c-1.796,7.55-5.695,27.75-6.892,35.792c-3.99-0.244-7.444-0.488-11.373-0.121
		c-4.114,0.367-8.243,1.105-12.295,2.21c-5.403-14.121-9.394-25.294-16.024-40.093L174.723,346.194z"/>
	<path fill="#EE2A24" d="M312.003,288.911c3.254,0.492,6.662,0.553,9.885,0.246c3.008-0.246,6.14-0.921,9.087-1.903
		c22.225,50.282,48.441,101.057,62.438,127.458c-5.894-0.43-11.91-0.125-17.743,0.367c-6.202,0.552-14.09,1.228-19.831,2.885
		c-7.122-19.031-12.708-30.513-15.226-35.915c-6.416,0.307-12.832,0.49-19.585,1.104c-6.938,0.615-14.274,1.476-21.565,2.458
		c-2.395,9.516-6.062,23.82-8.058,38.004c-3.607-0.246-16.807,0.367-20.828,1.841C279.909,400.222,302.288,327.038,312.003,288.911
		 M316.025,328.327l-12.386,42.547c5.126-0.061,10.207-0.367,15.272-0.797c5.249-0.492,10.499-1.29,15.748-1.966L316.025,328.327z"
		/>
	<path fill="#EE2A24" d="M413.521,311.627c-1.074-11.972-2.885-22.286-4.512-29.715c6.109,0.43,12.156,0.063,18.358-0.43
		c5.801-0.491,11.388-1.411,17.006-2.64c-0.122,13.813,0.491,29.717,1.167,37.39l5.342,61.027c0.46,5.463,1.167,11.113,1.811,16.515
		c12.218-1.044,32.693-2.824,43.928-6.323c-0.338,4.605,0.983,15.472,1.599,18.05c-9.457,0.123-21.735,0.431-32.264,1.353
		c-13.139,1.165-28.273,3.376-45.341,5.463c0.245-10.068-0.123-20.997-1.29-34.32L413.521,311.627z"/>
	<path fill="#EE2A24" d="M520.564,308.743c-1.074-12.034-2.702-24.189-5.064-36.101c5.863,0.184,11.757,0.061,17.559-0.43
		c14.459-1.228,22.378-3.071,36.868-4.359c35.886-3.132,65.692,15.471,69.376,57.158c3.192,36.653-17.007,69.622-64.556,73.798
		c-6.569,0.615-19.586,0.615-24.652,1.045c-3.377,0.305-14.457,1.411-23.205,3.13c0.059-12.464-0.246-24.928-1.353-37.327
		L520.564,308.743z M557.464,371.366c0.396,4.666,1.043,9.578,1.625,14.244c2.303,0.184,0,0.92,6.2,0.43
		c10.53-0.922,22.749-4.053,30.792-14.244c10.865-14.061,9.975-37.022,9.393-44.021c-1.044-11.419-4.697-29.469-17.836-39.169
		c-10.498-7.553-20.475-6.877-28.58-6.141c-9.547,0.799-6.477,0.736-8.718,1.104c0.369,3.991,1.043,18.665,1.658,25.049
		L557.464,371.366z"/>
	<path fill="#EE2A24" d="M736.954,387.084c-41.904,3.683-70.975-16.517-74.843-60.66c-3.469-39.662,16.793-70.788,64.129-74.902
		c40.397-3.561,71.463,15.717,75.27,59.125C805.746,358.902,774.741,383.768,736.954,387.084 M727.774,264.845
		c-28.549,2.456-33.982,30.021-31.403,59.554c3.284,37.327,19.861,51.081,39.414,49.361c23.854-2.087,34.72-23.883,31.559-59.737
		C764.64,283.018,752.209,262.696,727.774,264.845"/>
	<path fill="#EE2A24" d="M861.708,330.537l-0.828-8.902c-1.903-20.813,26.001-32.661,23.883-55.745
		c-1.351-14.245-12.095-22.533-26.677-19.157c-12.555,3.009-16.147,20.261-13.385,20.015c8.013-0.857,14.152,5.466,14.736,12.586
		c0.582,6.693-4.574,15.043-14.551,16.025c-13.479,1.165-22.441-8.841-23.607-21.735c-2.271-24.68,18.48-40.396,41.134-42.484
		c21.827-2.026,48.964,6.815,51.328,32.477c3.069,33.094-38.434,38.559-36.069,64.282l0.123,1.166L861.708,330.537z
		 M870.887,341.589c9.116-0.921,16.761,5.342,17.62,14.49c0.891,9.147-5.402,16.761-14.488,17.62
		c-9.148,0.921-16.761-5.404-17.653-14.49C855.476,350.061,861.77,342.448,870.887,341.589"/>
	<path d="M159.773,175.207l-15.318,56.423c-3.039,10.867-5.081,22.041-6.57,33.092c-4.205-0.368-7.061-0.491-11.189-0.122
		c-4.328,0.368-8.795,1.165-13.047,2.271c-5.188-18.111-31.143-87.55-49.73-127.026c6.078,0.43,13.046,0,19.278-0.553
		c5.817-0.491,12.125-1.657,17.16-2.641c5.664,19.217,8.995,29.163,19.493,58.327c6.247,17.251,8.426,22.531,11.036,28.732
		l10.622-38.803c4.865-17.62,9.025-35.424,11.665-52.861c5.127,0.308,9.118,0.308,12.479,0c3.392-0.245,6.724-0.921,10.622-2.025
		c1.566,4.974,2.854,8.841,6.262,17.437c6.784,17.006,26.4,61.702,29.946,69.684l11.005-56.055
		c4.804-24.865,5.003-27.32,5.003-35.624c3.991,0.031,8.196,0.399,12.126,0.062c3.959-0.338,7.291-1.197,9.869-2.026
		c-1.658,5.05-1.949,6.032-7.92,30.836l-16.254,67.474c-1.78,7.552-5.679,27.75-6.876,35.795c-3.991-0.186-7.444-0.492-11.374-0.125
		c-4.129,0.369-8.242,1.105-12.294,2.211c-5.418-14.06-9.439-25.295-16.04-40.029L159.773,175.207z"/>
	<path d="M110.396,272.58l-1.258-4.42c-5.158-17.928-31.312-87.733-49.47-126.291l-3.438-7.306l7.981,0.614
		c5.219,0.307,10.667,0.123,18.558-0.614c4.589-0.368,10.207-1.228,16.653-2.518l4.251-0.859l1.228,4.176
		c5.587,18.971,8.856,28.732,19.386,58.019c2.456,6.753,4.282,11.727,5.755,15.594l6.923-25.295
		c5.372-19.4,9.147-36.529,11.527-52.37l0.629-4.252l4.313,0.276c5.05,0.308,8.704,0.308,11.819,0.062
		c2.978-0.307,6.093-0.891,9.746-1.934l4.39-1.229l1.351,4.375c1.519,4.728,2.747,8.472,6.17,17.129
		c4.773,11.973,16.285,38.495,23.821,55.747l8.119-41.258c4.743-24.496,4.896-26.768,4.927-34.795v-4.728l4.743,0.03l4.099,0.123
		l7.597-0.031c3.776-0.338,6.861-1.197,8.872-1.811l8.672-2.701l-2.793,8.655c-1.582,4.805-1.796,5.604-7.798,30.468l-16.254,67.474
		c-1.795,7.429-5.694,27.629-6.815,35.425l-0.629,4.236l-5.694-0.306c-3.208-0.186-6.063-0.369-9.332-0.063
		c-3.807,0.308-7.674,0.981-11.45,2.026l-4.114,1.167l-4.467-11.727c-4.113-10.867-7.674-20.261-12.985-32.109l-14.551-32.418
		l-11.88,43.714c-2.701,9.701-4.804,20.322-6.447,32.54l-0.598,4.482l-4.498-0.431c-3.761-0.369-6.508-0.492-10.33-0.123
		c-4.099,0.308-8.334,1.104-12.264,2.148L110.396,272.58z M71.349,144.694c17.083,37.635,38.572,94.671,45.524,116.588
		c3.117-0.674,6.324-1.104,9.425-1.349l7.551-0.185c1.596-10.867,3.576-20.506,6.063-29.409l18.772-69.131l25.372,56.484
		c5.403,12.156,9.01,21.61,13.168,32.601l1.475,3.807c2.946-0.614,5.97-1.044,8.932-1.351l7.813-0.062
		c1.612-9.516,4.697-25.356,6.293-31.987l16.254-67.474c3.085-12.831,4.651-19.278,5.726-23.33l-2.687,0.308l-7.889,0.122
		c-0.246,5.833-1.151,11.665-5.02,31.681l-13.89,70.727l-6.078-13.69c-0.215-0.491-22.502-51.021-30.023-69.868
		c-2.471-6.323-3.852-10.069-4.988-13.507l-7.076,1.104c-2.608,0.245-5.433,0.245-8.932,0.185
		c-2.44,14.98-6.093,31.188-11.097,49.239l-14.198,51.88l-5.28-12.525c-2.671-6.263-4.881-11.665-11.128-28.979
		c-9.838-27.32-13.399-37.818-18.357-54.457c-5.096,0.921-9.593,1.534-13.492,1.842C78.839,144.448,74.91,144.633,71.349,144.694"/>
	<path d="M274.599,150.771c-0.906-10.56-2.886-22.271-4.052-28.993c5.725,0.245,11.557,0.122,17.759-0.43
		c7.705-0.676,14.213-1.996,17.006-2.641c0.215,17.636,1.228,29.24,3.239,52.325c9.992-0.431,18.096-0.983,26.538-1.72
		c8.104-0.736,16.577-1.474,27.198-2.946l-2.087-24.067c-0.675-7.675-2.579-20.798-3.96-28.043
		c3.96,0.031,12.095,0.093,17.958-0.398c6.386-0.584,14.367-2.026,17.191-2.64c-0.307,16.269,3.009,54.227,4.636,72.829
		c1.996,22.778,3.684,42.057,6.907,57.528c-5.863-0.246-11.727-0.123-17.375,0.368c-6.201,0.553-12.34,1.474-18.296,2.763
		c0.369-4.789,0.829-12.218-0.368-25.908l-3.192-36.47c-8.104,0.368-17.314,0.982-27.505,1.842
		c-9.762,0.859-19.524,1.903-26.231,2.824l3.454,39.662c0.676,7.919,2.087,17.62,3.131,22.47
		c-3.438-0.062-10.452-0.245-17.205,0.368c-4.16,0.369-12.019,1.413-17.575,2.641c0.122-9.454,0.122-18.173-1.259-33.952
		L274.599,150.771z"/>
	<path d="M276.993,258.09l0.061-5.954c0.123-9.639,0.093-18.234-1.258-33.521l-5.909-67.475c-0.845-9.7-2.579-20.383-3.991-28.595
		l-0.998-5.74l5.878,0.246c5.525,0.245,11.112,0.122,17.129-0.399c7.598-0.675,13.983-1.995,16.377-2.517l5.649-1.29l0.092,5.803
		c0.2,16.285,1.059,27.396,2.84,47.474c8.227-0.431,14.98-0.922,21.856-1.535c6.969-0.553,14.06-1.229,22.501-2.271l-1.75-19.585
		c-0.645-7.797-2.579-20.798-3.868-27.552l-1.105-5.679l5.771,0.03l3.837,0.031c5.802,0,10.375-0.153,13.66-0.43
		c6.047-0.522,13.876-1.965,16.547-2.548l5.863-1.32l-0.123,6.017c-0.276,16.239,3.192,55.578,4.666,72.339
		c1.965,22.532,3.684,41.872,6.846,56.976l1.258,5.955l-6.079-0.245c-5.679-0.246-11.358-0.123-16.761,0.368
		c-6.047,0.491-12.033,1.412-17.743,2.64l-6.14,1.29l0.461-6.263c0.307-4.298,0.829-11.481-0.399-25.172l-2.763-31.927
		c-6.876,0.369-14.489,0.922-22.778,1.658c-8.074,0.675-15.656,1.474-21.55,2.21l3.039,35.181c0.707,7.797,2.118,17.252,3.04,21.918
		l1.197,5.832l-5.924-0.185l-5.587-0.122c-4.144,0-7.843,0.184-11.082,0.49c-3.684,0.308-11.358,1.29-16.945,2.579L276.993,258.09z
		 M276.149,126.598c1.197,7.352,2.44,15.825,3.131,23.744l5.924,67.474c1.089,12.647,1.35,20.813,1.32,28.672
		c4.451-0.798,9.24-1.411,12.402-1.657c3.499-0.369,7.521-0.491,11.911-0.491h0.062c-0.829-5.096-1.688-11.604-2.149-17.252
		l-3.868-44.082l4.391-0.614c6.446-0.982,16.116-2.025,26.553-2.886c10.223-0.921,19.585-1.534,27.69-1.903l4.481-0.185
		l3.561,40.951c0.798,9.147,0.921,15.533,0.737,20.567c4.236-0.736,8.534-1.289,12.862-1.657c3.898-0.369,7.828-0.553,12.064-0.553
		c-2.579-14.612-4.144-32.171-5.863-52.063c-1.504-16.7-4.328-49.178-4.697-67.765c-3.622,0.613-8.166,1.289-12.064,1.627
		c-3.223,0.276-7.522,0.43-12.74,0.491c1.167,7.183,2.486,16.53,3.008,22.915l2.518,28.487l-4.451,0.615
		c-10.714,1.473-19.125,2.271-27.291,3.008c-8.35,0.675-16.332,1.228-26.83,1.72l-4.559,0.245l-0.384-4.543
		c-1.826-20.691-2.824-32.233-3.177-47.015c-3.239,0.553-7.383,1.198-11.972,1.597c-4.313,0.368-8.427,0.553-12.51,0.553H276.149z"
		/>
	<path d="M427.918,132.968c-0.736-8.427-2.026-16.838-3.868-24.636c16.393-0.675,32.048-1.289,43.714-2.302
		c10.345-0.891,20.076-2.148,33.153-4.42c-0.307,2.854,0.553,15.103,1.565,18.049c-12.616-1.196-30.483,0.185-42.885,1.29
		c0.246,6.784,0.614,13.368,1.198,20.122l1.688,19.155c15.225-1.289,27.413-2.395,41.719-5.709
		c-0.308,3.069,0.951,15.041,1.564,17.865c-14.061-0.307-24.741,0.676-42.055,2.149l3.285,37.39
		c0.245,2.824,0.706,5.464,1.075,8.043c9.424-0.798,29.316-2.763,42.055-6.509c-0.307,3.255,0.736,15.288,1.628,18.604
		c-12.126-0.062-29.624,1.105-42.578,2.21c-12.064,1.044-24.19,2.886-34.658,4.544c0.89-9.333,0.062-27.444-0.83-37.82
		L427.918,132.968z"/>
	<path d="M429.238,244.399l0.583-6.016c0.86-8.964,0-27.015-0.829-36.961l-5.802-68.025c-0.706-8.458-1.995-16.531-3.745-23.99
		l-1.29-5.557l8.135-0.338c15.441-0.645,30.115-1.228,41.073-2.18c10.774-0.921,20.568-2.24,32.725-4.358l6.199-1.075l-0.705,6.232
		l1.352,15.963l2.363,6.906l-7.275-0.645c-3.009-0.276-6.631-0.46-10.684-0.46c-8.718,0-18.234,0.645-26.829,1.351
		c0.215,5.265,0.552,10.299,0.982,15.395l1.29,14.489c13.016-1.166,23.882-2.271,36.346-5.218l6.446-1.475l-0.675,6.57l1.474,16.331
		l1.32,5.832l-5.986-0.123c-12.493-0.184-22.347,0.491-36.837,1.781l2.825,32.662l0.397,3.377
		c16.331-1.535,28.643-3.562,36.685-5.956l6.661-1.964l-0.643,6.938c-0.246,2.701,0.797,14.12,1.533,17.007l1.474,5.894h-7.276
		c-9.914,0-25.232,0.798-40.95,2.148c-11.88,1.044-24.036,2.886-34.289,4.544L429.238,244.399z M429.821,112.813
		c1.228,6.294,2.18,12.925,2.763,19.786l5.802,68.025c0.706,7.92,1.443,22.225,1.167,32.602c9.086-1.352,19.187-2.764,29.193-3.685
		c5.403-0.43,22.994-1.903,37.482-2.21l-0.707-7.858c-9.086,2.088-21.519,3.807-37.02,5.157l-4.359,0.43l-0.706-4.359
		c-0.43-2.64-0.89-5.402-1.136-8.35l-3.683-42.117l4.696-0.368c15.256-1.351,25.327-2.211,36.992-2.272l-0.645-7.244
		c-12.249,2.456-23.208,3.438-36.654,4.604l-4.697,0.368l-0.522-4.666l-1.688-19.155c-0.583-6.691-0.982-13.368-1.228-20.429
		l-0.122-4.451l4.451-0.368c9.916-0.892,21.519-1.781,32.14-1.781l5.464,0.092l-0.583-7.367c-9.977,1.628-18.633,2.701-28.027,3.499
		C457.756,111.617,444.25,112.23,429.821,112.813"/>
	<path d="M606.394,159.184l33.154,43.529c3.438,4.42,10.989,13.016,14.98,15.717l-0.43,1.167c-6.446-0.368-13.077,0-19.646,0.613
		c-8.073,0.676-12.524,1.474-19.646,2.824c-0.86-1.596-4.727-8.901-12.586-18.787l-29.039-37.39l-0.768-0.307l-0.092,1.166
		c1.534,17.621,2.638,27.936,4.236,41.811c0.674,5.648,1.164,11.235,2.394,16.639c-5.342-0.307-11.39-0.123-16.821,0.368
		c-4.852,0.368-12.342,1.596-17.008,2.64c0.185-17.497-1.535-35.118-4.851-72.876c-2.517-29.117-4.051-46.584-6.569-57.574
		c8.349,0.03,15.902-0.245,20.598-0.645c11.636-1.013,23.393-3.192,35.026-4.206c6.755-0.583,40.952-3.561,43.898,29.839
		C635.158,146.105,616.986,156.973,606.394,159.184 M571.308,156.236l5.68-0.308c6.937-0.613,26.276-2.333,24.098-27.32
		c-1.874-21.381-15.688-21.319-26.431-20.399l-7.093,1.014L571.308,156.236z"/>
	<path d="M540.365,234.945l0.062-5.894c0.152-15.473-1.229-30.943-3.93-61.765l-0.891-10.621
		c-2.578-28.81-4.084-46.216-6.509-56.867l-1.289-5.803l7.215,0.031c7.153,0,14.244-0.246,18.879-0.645
		c5.71-0.522,11.573-1.289,17.252-2.088c5.801-0.768,11.849-1.596,17.774-2.088c1.381-0.153,3.99-0.398,7.274-0.398
		c24.619,0,39.785,12.586,41.688,34.535c1.812,20.552-11.481,33.139-23.699,38.296l29.103,38.188
		c3.468,4.543,10.619,12.524,13.875,14.674l3.192,2.148l-3.162,7.858l-3.407-0.184c-6.632-0.43-13.814,0.122-18.91,0.552
		c-7.612,0.676-11.88,1.352-19.156,2.763l-3.376,0.676l-1.657-3.009c-3.284-6.017-7.337-12.033-12.157-18.111l-20.261-26.093
		c0.983,10.13,1.843,18.173,2.949,27.873l0.367,3.254c0.521,4.544,1.014,8.78,1.965,12.894l1.382,6.078l-6.264-0.307
		c-5.064-0.308-10.806-0.123-16.147,0.307c-4.633,0.368-12.003,1.596-16.423,2.578L540.365,234.945z M539.474,103.42
		c1.903,11.328,3.346,27.767,5.465,52.447l0.952,10.622c2.425,27.382,3.774,42.793,3.928,56.976
		c3.989-0.676,8.503-1.352,11.881-1.658c3.775-0.307,7.734-0.491,11.541-0.491l-0.981-8.043l-0.4-3.192
		c-1.565-13.814-2.669-24.128-4.236-41.995l1.076-4.543l1.29-1.534l2.517-0.185l3.744,1.473l0.676,0.677l29.01,37.389
		c4.391,5.526,8.196,11.052,11.327,16.393c5.771-1.043,10.008-1.719,16.761-2.271c2.763-0.245,6.139-0.491,9.732-0.675
		c-3.285-3.5-6.356-7.184-7.922-9.271l-37.696-49.362l7.276-1.596c7.028-1.475,24.926-9.885,23.084-30.438
		c-1.474-17.19-12.342-25.909-32.295-25.909c-2.884,0-5.217,0.246-6.446,0.338c-5.709,0.492-11.634,1.32-17.313,2.057
		c-5.801,0.829-11.788,1.627-17.742,2.149C550.801,103.113,545.307,103.328,539.474,103.42 M571.953,160.963l-5.035-0.184
		l-4.357-55.18l3.897-0.981l7.582-1.105l6.446-0.338c15.35,0,23.852,8.442,25.295,25.02c1.72,19.692-7.827,30.621-28.396,32.4
		L571.953,160.963 M572.626,113.151l3.009,38.173l0.923-0.123c11.203-0.981,21.396-4.297,19.828-22.163
		c-1.195-13.615-7.212-16.439-15.9-16.439l-5.401,0.308L572.626,113.151"/>
	<path d="M672.242,111.617c-0.767-8.473-2.056-16.853-3.867-24.65c16.423-0.676,32.078-1.289,43.742-2.333
		c10.284-0.859,20.017-2.118,33.092-4.39c-0.305,2.854,0.555,15.072,1.599,18.05c-12.616-1.196-30.454,0.185-42.887,1.29
		c0.217,6.784,0.584,13.353,1.198,20.137l1.689,19.141c15.225-1.289,27.412-2.395,41.719-5.71
		c-0.309,3.069,0.951,15.042,1.533,17.866c-13.998-0.308-24.742,0.614-42.024,2.148l3.284,37.391
		c0.246,2.824,0.676,5.402,1.105,8.042c9.393-0.798,29.286-2.763,41.994-6.508c-0.246,3.255,0.768,15.227,1.657,18.603
		c-12.155-0.122-29.653,1.045-42.607,2.211c-12.034,1.044-24.16,2.824-34.628,4.543c0.86-9.332,0.063-27.443-0.859-37.819
		L672.242,111.617z"/>
	<path d="M673.562,223.034l0.613-6.017c0.829-9.025,0-27.014-0.859-36.96l-5.771-68.072c-0.735-8.381-1.995-16.454-3.744-23.944
		l-1.352-5.556l8.563-0.338c15.32-0.646,29.81-1.229,40.675-2.18c10.806-0.952,20.569-2.271,32.725-4.359l6.14-1.074l-0.644,6.231
		l1.319,15.963l2.396,6.907l-7.245-0.676c-3.071-0.276-6.692-0.43-10.776-0.43c-8.748,0-18.479,0.675-26.798,1.352
		c0.246,5.188,0.551,10.283,1.043,15.44l1.228,14.443c13.017-1.166,23.885-2.333,36.409-5.219l6.384-1.489l-0.675,6.585
		l1.503,16.331l1.29,5.832l-6.017-0.061c-12.493-0.246-22.286,0.43-36.808,1.719l2.888,32.663l0.367,3.376
		c16.331-1.597,28.672-3.561,36.652-5.955l6.631-1.965l-0.584,6.877c-0.213,2.763,0.799,14.243,1.506,17.067l1.534,5.894
		l-7.306-0.062c-14.857,0-35.119,1.72-40.95,2.211c-11.974,1.044-24.068,2.885-34.32,4.481L673.562,223.034z M674.175,91.448
		c1.228,6.293,2.149,12.924,2.764,19.771l5.771,68.041c0.674,7.858,1.442,22.163,1.165,32.601
		c9.026-1.351,19.156-2.824,29.193-3.684c5.404-0.491,22.87-1.903,37.482-2.211l-0.706-7.857
		c-9.117,2.087-21.519,3.807-37.021,5.156l-4.391,0.368l-0.736-4.666c-0.431-2.517-0.798-5.157-1.075-7.98l-3.653-42.118l4.666-0.43
		c15.229-1.288,25.266-2.148,36.991-2.21l-0.645-7.245c-12.278,2.456-23.268,3.439-36.776,4.605l-4.696,0.43l-2.057-23.868
		c-0.614-6.814-1.044-13.506-1.228-20.444l-0.123-4.42l4.422-0.43c9.301-0.799,21.364-1.75,32.077-1.75l5.557,0.092l-0.615-7.398
		c-9.945,1.658-18.602,2.701-28.057,3.562C702.05,90.282,688.542,90.835,674.175,91.448"/>
	<path d="M881.569,96.145c-4.787-13.967-16.269-17.129-26.03-16.3c-3.747,0.338-21.213,2.241-19.801,18.204
		c1.043,11.849,9.793,14.489,38.586,23.146c5.618,1.78,13.539,5.617,19.279,12.877c4.881,6.018,6.813,13.446,7.49,20.752
		c2.148,24.436-13.752,44.389-46.23,47.213c-18.973,1.657-30.392-3.192-36.714-6.078c1.627-7.674,2.271-19.708,1.688-26.277
		l4.697-0.368c4.482,16.639,19.216,20.444,30.513,19.462c15.779-1.412,21.735-11.174,20.876-20.752
		c-0.923-10.498-7.767-12.954-31.56-20.935c-17.742-6.018-30.267-14.797-32.078-35.41c-2.241-25.939,13.783-42.118,42.148-44.604
		c17.835-1.565,27.874,2.701,35.548,5.986c-3.04,6.692-4.328,17.988-4.297,22.716L881.569,96.145z"/>
	<path d="M847.342,207.072c-16.056,0-26.218-4.605-31.097-6.815l-3.469-1.597l0.767-3.622c1.597-7.552,2.118-19.217,1.597-24.927
		l-0.368-4.728l13.322-1.166l0.981,3.806c3.808,14.06,15.842,16.147,22.656,16.147l2.885-0.123
		c11.175-0.92,17.374-6.814,16.64-15.655c-0.646-7.061-4.514-8.841-28.367-16.822c-16.206-5.526-33.092-14.49-35.271-39.523
		c-2.487-28.304,14.857-46.876,46.354-49.669l7.827-0.338c14.461,0,23.455,3.868,30.023,6.692l4.42,1.903l-1.965,4.359
		c-2.639,5.802-3.898,16.453-3.867,20.751l0.031,4.328l-12.126,1.074l-1.198-3.499c-3.038-8.749-9.301-13.23-18.694-13.23
		l-2.518,0.123c-7.49,0.675-16.33,3.499-15.471,13.107c0.676,8.073,5.525,10.1,35.21,19.033c5.127,1.596,14.613,5.586,21.642,14.504
		c4.85,5.955,7.644,13.569,8.503,23.208c1.198,13.752-2.731,25.971-11.357,35.363c-8.934,9.64-22.471,15.472-39.171,17.007
		L847.342,207.072 M823.458,193.135c5.035,2.088,12.741,4.544,23.885,4.544l7.091-0.368c14.305-1.229,25.755-6.079,33.063-13.999
		c6.782-7.306,9.854-17.006,8.87-28.119c-0.645-7.674-2.763-13.63-6.445-18.174c-5.466-6.937-13.018-10.053-17.069-11.311
		c-29.47-8.872-40.521-12.218-41.811-27.229c-1.135-12.985,8.105-21.919,24.068-23.33l3.314-0.153
		c10.07,0,18.112,3.929,23.33,11.204c0.492-3.377,1.229-7.122,2.24-10.498c-5.463-2.18-12.308-4.237-22.194-4.237l-6.968,0.338
		c-26.032,2.241-39.814,16.639-37.818,39.447c1.595,18.464,12.678,25.893,28.885,31.419c23.699,7.92,33.521,11.174,34.751,24.926
		c0.982,11.666-6.386,24.19-25.235,25.848l-3.682,0.185c-11.789,0-21.334-4.728-27.076-12.954
		C824.41,184.907,824.042,189.267,823.458,193.135"/>
	<path d="M777.443,98.908c3.101,0,5.711-2.118,6.445-2.24c2.028-0.308,2.364,12.861-7.919,17.037l2.272,4.513
		c13.568-4.666,16.698-14.705,16.606-24.283c-0.063-9.823-5.74-18.663-16.36-18.694c-7.124,0-12.249,5.311-12.28,12.218
		C766.208,94.396,770.536,98.908,777.443,98.908"/>
	<path d="M775.846,124.019l-6.323-12.739l4.695-1.934c3.041-1.259,4.637-3.715,5.435-5.895l-2.21,0.185
		c-4.666,0-8.658-1.597-11.573-4.543c-2.854-2.948-4.389-6.969-4.389-11.635c0-9.639,7.337-16.945,16.944-16.945
		c12.37,0.031,21.06,9.64,21.12,23.392c0.123,14.551-6.509,24.252-19.77,28.764L775.846,124.019z M783.951,91.971
		c2.179,0,4.758,1.381,5.556,5.311l0.217,2.088l0.43-5.403c-0.063-6.968-3.685-13.967-11.728-13.998
		c-4.391,0-7.491,3.101-7.491,7.49l1.659,5.034l4.85,1.688l3.069-1.105l2.671-1.043L783.951,91.971z"/>
	<path fill="#00AEEF" d="M159.773,175.207l-15.318,56.423c-3.039,10.867-5.081,22.041-6.57,33.092
		c-4.205-0.368-7.061-0.491-11.189-0.122c-4.328,0.368-8.795,1.165-13.047,2.271c-5.188-18.111-31.143-87.55-49.73-127.026
		c6.078,0.43,13.046,0,19.278-0.553c5.817-0.491,12.125-1.657,17.16-2.641c5.664,19.217,8.995,29.163,19.493,58.327
		c6.247,17.251,8.426,22.531,11.036,28.732l10.622-38.803c4.865-17.62,9.025-35.424,11.665-52.861c5.127,0.308,9.118,0.308,12.479,0
		c3.392-0.245,6.724-0.921,10.622-2.025c1.566,4.974,2.854,8.841,6.262,17.437c6.784,17.006,26.4,61.702,29.946,69.684
		l11.005-56.055c4.804-24.865,5.003-27.32,5.003-35.624c3.991,0.031,8.196,0.399,12.126,0.062c3.959-0.338,7.291-1.197,9.869-2.026
		c-1.658,5.05-1.949,6.032-7.92,30.836l-16.254,67.474c-1.78,7.552-5.679,27.75-6.876,35.795c-3.991-0.186-7.444-0.492-11.374-0.125
		c-4.129,0.369-8.242,1.105-12.294,2.211c-5.418-14.06-9.439-25.295-16.04-40.029L159.773,175.207z"/>
	<path fill="#00AEEF" d="M274.599,150.771c-0.906-10.56-2.886-22.271-4.052-28.993c5.725,0.245,11.557,0.122,17.759-0.43
		c7.705-0.676,14.213-1.996,17.006-2.641c0.215,17.636,1.228,29.24,3.239,52.325c9.992-0.431,18.096-0.983,26.538-1.72
		c8.104-0.736,16.577-1.474,27.198-2.946l-2.087-24.067c-0.675-7.675-2.579-20.798-3.96-28.043
		c3.96,0.031,12.095,0.093,17.958-0.398c6.386-0.584,14.367-2.026,17.191-2.64c-0.307,16.269,3.009,54.227,4.636,72.829
		c1.996,22.778,3.684,42.057,6.907,57.528c-5.863-0.246-11.727-0.123-17.375,0.368c-6.201,0.553-12.34,1.474-18.296,2.763
		c0.369-4.789,0.829-12.218-0.368-25.908l-3.192-36.47c-8.104,0.368-17.314,0.982-27.505,1.842
		c-9.762,0.859-19.524,1.903-26.231,2.824l3.454,39.662c0.676,7.919,2.087,17.62,3.131,22.47
		c-3.438-0.062-10.452-0.245-17.205,0.368c-4.16,0.369-12.019,1.413-17.575,2.641c0.122-9.454,0.122-18.173-1.259-33.952
		L274.599,150.771z"/>
	<path fill="#00AEEF" d="M427.918,132.968c-0.736-8.427-2.026-16.838-3.868-24.636c16.393-0.675,32.048-1.289,43.714-2.302
		c10.345-0.891,20.076-2.148,33.153-4.42c-0.307,2.854,0.553,15.103,1.565,18.049c-12.616-1.196-30.483,0.185-42.885,1.29
		c0.246,6.784,0.614,13.368,1.198,20.122l1.688,19.155c15.225-1.289,27.413-2.395,41.719-5.709
		c-0.308,3.069,0.951,15.041,1.564,17.865c-14.061-0.307-24.741,0.676-42.055,2.149l3.285,37.39
		c0.245,2.824,0.706,5.464,1.075,8.043c9.424-0.798,29.316-2.763,42.055-6.509c-0.307,3.255,0.736,15.288,1.628,18.604
		c-12.126-0.062-29.624,1.105-42.578,2.21c-12.064,1.044-24.19,2.886-34.658,4.544c0.89-9.333,0.062-27.444-0.83-37.82
		L427.918,132.968z"/>
	<path fill="#00AEEF" d="M606.394,159.184l33.154,43.529c3.438,4.42,10.989,13.016,14.98,15.717l-0.43,1.167
		c-6.446-0.368-13.077,0-19.646,0.613c-8.073,0.676-12.524,1.474-19.646,2.824c-0.86-1.596-4.727-8.901-12.586-18.787l-29.039-37.39
		l-0.768-0.307l-0.092,1.166c1.534,17.621,2.638,27.936,4.236,41.811c0.674,5.648,1.164,11.235,2.394,16.639
		c-5.342-0.307-11.39-0.123-16.821,0.368c-4.852,0.368-12.342,1.596-17.008,2.64c0.185-17.497-1.535-35.118-4.851-72.876
		c-2.517-29.117-4.051-46.584-6.569-57.574c8.349,0.03,15.902-0.245,20.598-0.645c11.636-1.013,23.393-3.192,35.026-4.206
		c6.755-0.583,40.952-3.561,43.898,29.839C635.158,146.105,616.986,156.973,606.394,159.184 M571.308,156.236l5.68-0.308
		c6.937-0.613,26.276-2.333,24.098-27.32c-1.874-21.381-15.688-21.319-26.431-20.399l-7.093,1.014L571.308,156.236z"/>
	<path fill="#00AEEF" d="M672.242,111.617c-0.767-8.473-2.056-16.853-3.867-24.65c16.423-0.676,32.078-1.289,43.742-2.333
		c10.284-0.859,20.017-2.118,33.092-4.39c-0.305,2.854,0.555,15.072,1.599,18.05c-12.616-1.196-30.454,0.185-42.887,1.29
		c0.217,6.784,0.584,13.353,1.198,20.137l1.689,19.141c15.225-1.289,27.412-2.395,41.719-5.71
		c-0.309,3.069,0.951,15.042,1.533,17.866c-13.998-0.308-24.742,0.614-42.024,2.148l3.284,37.391
		c0.246,2.824,0.676,5.402,1.105,8.042c9.393-0.798,29.286-2.763,41.994-6.508c-0.246,3.255,0.768,15.227,1.657,18.603
		c-12.155-0.122-29.653,1.045-42.607,2.211c-12.034,1.044-24.16,2.824-34.628,4.543c0.86-9.332,0.063-27.443-0.859-37.819
		L672.242,111.617z"/>
	<path fill="#00AEEF" d="M881.569,96.145c-4.787-13.967-16.269-17.129-26.03-16.3c-3.747,0.338-21.213,2.241-19.801,18.204
		c1.043,11.849,9.793,14.489,38.586,23.146c5.618,1.78,13.539,5.617,19.279,12.877c4.881,6.018,6.813,13.446,7.49,20.752
		c2.148,24.436-13.752,44.389-46.23,47.213c-18.973,1.657-30.392-3.192-36.714-6.078c1.627-7.674,2.271-19.708,1.688-26.277
		l4.697-0.368c4.482,16.639,19.216,20.444,30.513,19.462c15.779-1.412,21.735-11.174,20.876-20.752
		c-0.923-10.498-7.767-12.954-31.56-20.935c-17.742-6.018-30.267-14.797-32.078-35.41c-2.241-25.939,13.783-42.118,42.148-44.604
		c17.835-1.565,27.874,2.701,35.548,5.986c-3.04,6.692-4.328,17.988-4.297,22.716L881.569,96.145z"/>
	<path fill="#00AEEF" d="M777.443,98.908c3.101,0,5.711-2.118,6.445-2.24c2.028-0.308,2.364,12.861-7.919,17.037l2.272,4.513
		c13.568-4.666,16.698-14.705,16.606-24.283c-0.063-9.823-5.74-18.663-16.36-18.694c-7.124,0-12.249,5.311-12.28,12.218
		C766.208,94.396,770.536,98.908,777.443,98.908"/>
	<path fill="#EE2A24" d="M907.662,336.31l2.458-4.482l3.959-3.193l5.064-1.473l5.25,0.553l4.42,2.456l3.224,3.99l1.474,5.033
		l-0.615,5.221l-2.454,4.42l-3.93,3.13l-5.096,1.474l-5.219-0.552l-4.451-2.395l-3.193-3.928l-1.504-5.037L907.662,336.31z
		 M930.687,334.836l-2.825-3.438l-3.93-2.211l-4.666-0.49l-4.48,1.29l-3.47,2.823l-2.21,3.93l-0.522,4.666l1.319,4.42l2.854,3.501
		l3.932,2.147l4.604,0.553l4.482-1.289l3.499-2.825l2.21-3.928l0.492-4.666L930.687,334.836 M926.388,347.114h-0.981l-0.984,0.123
		l-0.98,0.184l-2.579-3.806l-1.319-1.964l-0.521-0.738l-0.246-0.122l-0.123,0.122l0.061,0.492l0.184,1.779l0.217,1.903l0.213,1.659
		l0.154,0.98h-0.828l-0.921,0.063l-0.859,0.122l-0.859,0.124v-0.738l-0.063-1.534l-0.184-2.456l-0.246-3.499l-0.276-2.886
		l-0.215-1.903l-0.184-1.228l-0.186-0.859l1.474-0.063l1.414-0.121l1.288-0.125l1.78-0.184l3.255,0.738l1.411,2.577l-0.827,2.702
		l-2.427,1.595l5.373,6.999L926.388,347.114 M920.925,334.283l-1.628-0.554l-1.136,0.063l0.092,1.841l0.153,1.597l0.185,2.702
		l0.952-0.184l1.165-0.43l0.891-1.106l0.215-1.902L920.925,334.283"/>
</g>
</svg>
